<svg xmlns="http://www.w3.org/2000/svg" viewBox="0 0 839.78 685.67"><defs><style>.cls-1{fill:#0b0a09;}.cls-2{fill:#ff0101;}.cls-3{fill:#1401ff;}.cls-4{fill:#f0f2ef;}.cls-5{fill:#767676;}.cls-6{fill:#b0b0b0;}.cls-7{fill:#4a4a4a;}.cls-8{fill:#aeaeae;}.cls-9{fill:#494949;}.cls-10{fill:#afb0b0;}.cls-11{fill:#464646;}.cls-12{fill:#a4a5a5;}.cls-13{fill:#adadad;}.cls-14{fill:#a9a9a9;}.cls-15{fill:#0d0c0b;}.cls-16{fill:#0f0e0d;}.cls-17{fill:#abacac;}.cls-18{fill:#757575;}</style></defs><g id="Calque_2" data-name="Calque 2"><g id="Calque_1-2" data-name="Calque 1"><path class="cls-1" d="M220.82,85c-2.62-2.38-5.21-4.75-7.81-7.1-.41-.37-.84-.7-1.38-1.15-.71.76-1.36,1.44-2,2.14-3,3.33-6,6.68-9,10-1.31,1.44-1.93,1.5-3.45.3-.87-.69-1.66-1.5-2.48-2.26-6.78-6.33-13.59-12.62-20.32-19-3.51-3.32-3.46-3.49-.3-7.14,2.4-2.78,4.84-5.54,7.25-8.32.52-.59,1-1.22,1.6-1.95L168.8,37.62a7.79,7.79,0,0,1,1-1.89c2.72-2.82,5.5-5.58,8.27-8.35a5,5,0,0,1,.94-.6l13.78,12.47c.49-.47,1-.86,1.36-1.31l8.92-10c1.67-1.89,2.35-2,4.14-.45q11.55,10.12,23,20.33a15.62,15.62,0,0,1,1.32,1.38c1.88,2.1,1.89,3,0,5.13-2.53,2.89-5.08,5.76-7.62,8.64l-2.27,2.6L231,74.06c.66-.62,1.19-1.08,1.69-1.58q52-51.81,123.81-67.18A239.19,239.19,0,0,1,425.16.72,245.53,245.53,0,0,1,534,35.29a238.21,238.21,0,0,1,39.83,29.87,3.46,3.46,0,0,0,3.4,1c7-1.41,14.12-2.69,21.18-4a7,7,0,0,0,.93-.41V59.27c0-15.19.12-30.39.11-45.58a5.17,5.17,0,0,1,1.87-4.41,19.36,19.36,0,0,0,2.75-2.68,5.9,5.9,0,0,1,5.24-2.18c7.2.2,14.4.23,21.59.21a5.85,5.85,0,0,1,4.51,1.77c1.18,1.19,2.34,2.41,3.63,3.49a4.41,4.41,0,0,1,1.54,3.78q-.18,23.16-.22,46.31c-.08,23-.24,45.9-.12,68.85,0,3.83-1.65,6.38-4.09,8.75a5,5,0,0,1-2.59,1c-1.48.26-3,.32-4.53.48q48.66,105.75,1.62,212c.64.1,1.25.2,1.86.28,1.57.19,3.14.19,4.29,1.68,1.6,2.08,3.4,3.86,3.39,6.87-.06,17.6,0,35.19.1,52.79q.11,31.66.3,63.33a5.44,5.44,0,0,1-1.84,4.39c-6.28,6-4,4.83-12.33,5-6,.12-12,.08-18,.19a4.36,4.36,0,0,1-3.62-1.44,42.72,42.72,0,0,0-3.61-3.51,5.05,5.05,0,0,1-1.74-4.23c0-15.19-.07-30.38-.12-45.58v-2.72c-3.53-.69-6.88-1.36-10.24-2-3-.57-6-1-8.94-1.69a3.39,3.39,0,0,0-3.59,1,246.09,246.09,0,0,1-308.52,24.22,241.21,241.21,0,0,1-36.32-30.49c-.5-.51-.91-1.12-1.54-1.9L222,424.87c.43.55.78,1.06,1.2,1.51,3.21,3.46,6.38,7,9.67,10.33,1.36,1.4,1.73,2.35-.1,4q-11.93,10.75-24,21.4c-2.39,2.1-3,2-5.18-.29q-4.09-4.21-8.15-8.48c-.59-.63-1.09-1.35-1.77-2.19l-14.09,13c-.57-.27-1.27-.39-1.63-.81-2.85-3.23-5.63-6.52-8.6-10l13.69-12.79c-.43-.54-.79-1.05-1.2-1.49-3.18-3.38-6.38-6.74-9.56-10.11-1.5-1.59-1.59-2.36-.06-3.82q11.46-10.94,23-21.78c.06-.06.13-.1.19-.15,3-2.39,3.7-2.34,6.39.47s5.28,5.57,7.92,8.35c.59.63,1.2,1.24,1.91,2l8.27-7.67c-38.66-46.71-58.83-100.25-58.73-160.84S181.8,131.53,220.82,85ZM353.68,302.57l-65.29,60.67c1.46,1.58,2.67,2.93,3.93,4.25,2.2,2.32,4.46,4.58,6.63,6.92,1.21,1.3,1.17,1.83-.1,3-4.36,4-8.58,8.14-13.42,11.58-1.46,1-1.77,1.13-3.11,0s-2.48-2.5-3.74-3.72c-2.23-2.16-4.49-4.28-6.82-6.5-1.4,1.28-2.94,2.67-4.46,4.09s-3.08,2.93-4.85,4.61c31,31.39,67.85,50.91,111.12,58.17a3.33,3.33,0,0,0-.93-1.43,5.16,5.16,0,0,1-1.78-4.24c0-2.16-.11-4.32-.16-6.47-.2-9-.36-17.91-.62-26.86a6.23,6.23,0,0,1,1.49-4.39c1.37-1.66,2.74-3.34,3.95-5.12a3.53,3.53,0,0,1,2.77-1.62c1.11-.11,2.23-.08,3.35-.09H385c.1-.87.2-1.41.21-1.95.1-4.48.21-8.95.25-13.43q.14-13.92.22-27.83c0-1.22,0-2.39,1.08-3.27s1.93-1.68,2.89-2.51a9.33,9.33,0,0,1,6.57-2.37c11.35.19,22.7.24,34.06.31q21.71.14,43.42.19a36.19,36.19,0,0,0,4.53-.33c5.68-.73,10.25-3.73,14.75-7,5.12-3.77,7-9,7.14-15q.39-26.87.45-53.73c0-17.51-.11-35-.18-52.53-.07-15.52-.11-31-.26-46.54a43.08,43.08,0,0,0-1-7.57,11.52,11.52,0,0,0-3-5.93c-6.63-6.85-14.55-10.8-24.3-10.53-4.06.11-8.13.24-12.19.27-7,.07-13.92.07-20.87.09-14.64,0-29.27.05-43.91.14a5.71,5.71,0,0,1-4.14-1.47,25.77,25.77,0,0,0-3.13-2.59,4.31,4.31,0,0,1-2-4.05c0-12.07-.14-24.15-.25-36.22,0-1.5-.17-3-.28-4.75-2.28,0-4.34,0-6.41,0a4.41,4.41,0,0,1-4.24-2.1,42.52,42.52,0,0,0-3.36-4.36,7.78,7.78,0,0,1-1.81-5.5c.36-10.22.57-20.45.84-30.68.05-2.1-.31-4.29,1.65-6.07C359.72,48,325,60.55,305.63,71.92A198.55,198.55,0,0,0,264,104.21c2.83,2.58,5.4,4.92,8.09,7.39.87-1,1.57-1.71,2.25-2.48,2.31-2.65,4.58-5.33,6.92-8,1.28-1.42,1.95-1.43,3.43-.22s3,2.4,4.41,3.68c2.79,2.5,5.59,5,8.29,7.6,1.57,1.51,1.55,2.17.32,4a15.74,15.74,0,0,1-1.21,1.49c-1.63,1.86-3.28,3.71-4.9,5.58-1,1.13-1.88,2.3-2.9,3.56,21.56,19.75,42.92,39.34,64.35,59,.54-.38,1-.68,1.44-1,2.94-2.19,5.77-4.56,8.84-6.56a77.73,77.73,0,0,1,57.42-10.89,77.48,77.48,0,0,1,33.6,15.59,80.37,80.37,0,0,1,22.26,28.17A77,77,0,0,1,455.49,305c-15.28,12.37-32.94,18.17-52.71,17.45a75.36,75.36,0,0,1-43.14-15.21C357.66,305.8,355.77,304.22,353.68,302.57ZM606,351.52l-2.13-.42c-11.64-2.3-19.18-9.28-23-20.35-1.6-4.57-1.94-9.38-2-14.19-.06-2.87.15-5.75.14-8.63-.1-23.35-.28-46.7-.31-70.05,0-16.08.16-32.15.23-48.23,0-4.55-.06-9.11-.09-13.67a52.59,52.59,0,0,1,1.61-15.21c3.26-11.26,10.45-18.62,21.94-21.56,1.21-.31,2.46-.51,3.67-.75V64c-2.47-.46-4.67.13-7,.56q-37.18,7.13-74.4,14.09c-2.88.54-5.77,1.12-8.87,1.72,0,1.55,0,3,0,4.4q.35,36.23.7,72.45.24,28.32.39,56.62.12,33.11.08,66.22c0,13.51-.25,27-.38,40.54l-.48,51.58q-.17,16.78-.32,33.59c0,1.26,0,2.52,0,3.82a17.6,17.6,0,0,0,1.78.52c3.92.74,7.85,1.45,11.78,2.19q26.14,5,52.28,9.92c6.51,1.24,13,2.61,19.52,3.79a28.11,28.11,0,0,0,4.87,0Zm-327.88,1,65.51-60.47c-10.6-14.24-16.18-30-16.28-47.61s5.51-33.53,16.05-48.12a19.84,19.84,0,0,1-1.77-1.24q-4.64-4.17-9.24-8.36-13.49-12.27-26.94-24.54-12.39-11.31-24.76-22.66c-1.75-1.61-2-1.56-3.6.24q-4.8,5.52-9.66,11c-1.55,1.72-1.93,1.78-3.69.14-4.12-3.87-8.18-7.82-12.19-11.8-1.37-1.37-1.33-2-.08-3.53,1.94-2.33,4-4.6,5.92-6.92,1.58-1.86,3.13-3.75,4.87-5.83l-8.43-7.65c-.65.75-1.13,1.28-1.58,1.83a217.05,217.05,0,0,0-15.11,20.71,205,205,0,0,0-18.61,37,204.12,204.12,0,0,0-11.74,97.77,204.51,204.51,0,0,0,25.6,76.32c2.34,4.08,4.49,8.29,7.5,12,2.68,3.28,5.26,6.64,7.9,9.94,1.48,1.85,3,3.67,4.62,5.66l9.23-8.59c-.76-.81-1.33-1.46-1.93-2.08-3.16-3.28-6.35-6.54-9.47-9.86-1.29-1.37-1.27-1.71,0-3,4-3.9,8-7.78,12.1-11.62,2-1.88,3.1-1.75,5.06.31,2.42,2.54,4.84,5.09,7.28,7.62C275.74,350.23,276.84,351.27,278.11,352.53ZM251.51,92.87c1.52-1.65,2.71-3.15,4.11-4.42,3-2.73,6.14-5.33,9.19-8a213.53,213.53,0,0,1,43.69-29c5.58-2.74,11.33-5.16,17.11-7.45s11.36-4.29,17.13-6.12a189.33,189.33,0,0,1,25.08-6.08c4.63-.8,9.28-1.52,13.94-2.07,4.09-.48,8.22-.73,12.33-1,3.58-.23,7.17-.44,10.75-.46,3.19,0,6.38.21,9.56.4,4.91.28,9.84.47,14.73,1,5.3.56,10.62,1.18,15.84,2.22,7.18,1.43,14.32,3.14,21.41,5a196,196,0,0,1,30.33,11A192.17,192.17,0,0,1,520.4,60.42a185.93,185.93,0,0,1,17.57,12,3,3,0,0,0,2.66.64c6.64-1.29,13.31-2.43,20-3.76,1.2-.24,2.72,0,3.8-1.34C532.45,40.29,496,21.82,454.65,13.57Q375.38-2.23,302.46,33.06a233.84,233.84,0,0,0-65,46.93ZM567.16,422.09c-.11-.1-.22-.26-.35-.29-6.73-1.22-13.48-2.34-20.19-3.72a5.44,5.44,0,0,0-4.84,1.1c-3.6,2.76-7.21,5.52-11,8.08-4.61,3.14-9.23,6.29-14.08,9-5.81,3.31-11.8,6.32-17.83,9.22-5,2.41-10.15,4.65-15.36,6.63a177.93,177.93,0,0,1-23.27,7.21c-3.49.8-6.94,1.81-10.46,2.51-4.28.85-8.6,1.55-12.92,2.15a141.15,141.15,0,0,1-14.17,1.58c-4.26.15-8.51.67-12.8.3-4.76-.42-9.54.4-14.31-.11-2.12-.22-4.25-.22-6.37-.41-3.32-.31-6.64-.63-9.95-1-3.95-.49-7.94-.85-11.82-1.68-7.08-1.53-14.15-3.18-21.12-5.12-5.84-1.62-11.61-3.51-17.27-5.66s-11.21-4.58-16.66-7.21c-5.88-2.84-11.71-5.84-17.33-9.17s-11-7.1-16.33-10.82c-3.72-2.59-7.36-5.32-10.88-8.18a223.74,223.74,0,0,1-17.26-15.75,14.62,14.62,0,0,0-1.39-1.13c-4.33,4.12-8.75,7.86-13,12.21A232.68,232.68,0,0,0,294,455.77c43.64,23.39,90.16,32.64,139.42,27.3,37.29-4,71.66-16.53,103.25-36.72C548.64,438.69,565.51,425.3,567.16,422.09ZM239.32,388.37c-.43-.59-.69-1-1-1.35-2.64-3.39-5.41-6.69-7.91-10.19-3.05-4.28-5.84-8.74-8.8-13.08a161.31,161.31,0,0,1-12.2-21.91c-3.17-6.68-5.71-13.67-8.5-20.53a149.52,149.52,0,0,1-6.46-21c-1.82-7.51-3.33-15.07-4.41-22.74-.88-6.31-1.42-12.63-1.86-19-.14-2-.09-3.93-.09-5.91,0-5.08-.2-10.16-.23-15.24a47.93,47.93,0,0,1,.41-5.47c.6-5.38,1.23-10.75,1.85-16.12a183.28,183.28,0,0,1,4.1-21.83,189.31,189.31,0,0,1,9.29-28.59c3.16-7.65,6.72-15.16,10.58-22.48,3.22-6.12,7.06-11.91,10.77-17.76a168.57,168.57,0,0,1,15.12-20c1-1.11.85-2.06-.29-3.07-1.53-1.38-3-2.78-4.58-4.16-2.54-2.28-5.1-4.55-7.7-6.88a13,13,0,0,0-1.16,1.06,254.64,254.64,0,0,0-16.61,21.94,242.11,242.11,0,0,0-19.44,35.19,239,239,0,0,0-13.17,37.44,210.73,210.73,0,0,0-5.66,29.55c-.67,5.93-1.59,11.87-1.73,17.83-.21,9.25,0,18.53.36,27.78.27,6.27,1,12.54,1.91,18.76.84,6,1.91,12,3.2,17.87a231.87,231.87,0,0,0,9.62,32.31,201.65,201.65,0,0,0,13,28.55c6.84,12.09,14.1,23.94,22.87,34.78,1.78,2.2,3.7,4.3,5.59,6.48ZM600.87,348a25.09,25.09,0,0,0,3,.74c5,.51,10,.9,15,1.46,1.88.21,2.85-.38,3.67-2.13a237.06,237.06,0,0,0,11.41-29.2,243.84,243.84,0,0,0,7.48-30.4A218.88,218.88,0,0,0,645,257.14c.32-9.57-.19-19.16-.39-28.75a47.7,47.7,0,0,0-.52-5.71q-1.31-9.23-2.73-18.43a199.49,199.49,0,0,0-6.49-27.19,244.55,244.55,0,0,0-11.61-30.42c-1-2.24-2.18-4.42-3.39-6.85-7,.88-14.13.39-21.17,3C615.92,175,625,208.91,625.4,245.1S617.42,315.6,600.87,348ZM502,82.89q1.38,162.33,0,324.2l11.56,2.18c0-.73.1-1.2.11-1.67.13-10.56.28-21.11.39-31.67q.25-25.31.48-50.61c.16-16.8.41-33.59.46-50.38q.09-31.42-.09-62.85c-.08-17.2-.3-34.39-.46-51.58q-.36-36.22-.71-72.45c0-2.37-.09-4.74-.15-7.34Zm-2.43,323.69c.17-24.39.34-48.45.51-72.6-.38.09-.48.09-.52.13q-.87,1-1.71,2c-5.12,6-11.1,10.64-19.15,11.78a65.38,65.38,0,0,1-9.79.66c-12.78-.13-25.57-.4-38.36-.62-.85,0-1.71,0-2.86,0-.44,16-.87,31.72-1.31,47.69,1.88,0,3.46,0,5,0,3.75.07,7.59-.32,11.24.33,16.43,2.93,32.8,6.15,49.2,9.26C494.31,405.67,496.81,406.09,499.54,406.58Zm.51-250.53q-.26-36.36-.52-72.46a4.37,4.37,0,0,0-.81-.08c-17.17,3.25-34.33,6.55-51.52,9.74-4.93.91-9.8,2.26-14.89,2.28a43.19,43.19,0,0,0-5.82.84c.29,15.33.55,30.45,1.32,45.65h1.94c7.59-.12,15.18-.3,22.77-.33s15.17.06,22.76.14a25.06,25.06,0,0,1,16.46,6.22C494.57,150.48,497.13,153.22,500.05,156.05Zm86.12-2.64c-.78,1.41-1.37,2.32-1.8,3.31a38.83,38.83,0,0,0-3.08,15.64c-.11,20.79-.11,41.57-.14,62.35q0,15,0,30c0,17.66,0,35.33.15,53a39.94,39.94,0,0,0,3.2,15.87,10.85,10.85,0,0,0,2.7,4.13,6.57,6.57,0,0,0,.52-.68c.42-.78.82-1.56,1.2-2.35A195.48,195.48,0,0,0,602.27,299c3.58-13.59,6.34-27.32,6.44-41.48.09-11.74.13-23.46-1.36-35.15a218.55,218.55,0,0,0-5.56-28.67,206.34,206.34,0,0,0-11.12-31.1C589.35,159.67,587.83,156.8,586.17,153.41Zm-343.87,232c1.45-1.2,2.65-2.11,3.76-3.13s2.22-2.23,3.42-3.46c-31.84-38.87-48.21-83.4-48-133.33s17-94.45,49.3-132.79c-2-2-3.7-3.85-5.56-5.56-.79-.73-1.57-.28-2.21.54-2.56,3.26-5.28,6.4-7.73,9.74a227.26,227.26,0,0,0-14.48,22,222.25,222.25,0,0,0-10.43,20.46,190.78,190.78,0,0,0-9.69,26.46c-1.27,4.61-2.71,9.19-3.69,13.86-1.52,7.24-2.77,14.53-3.6,21.9-.85,7.57-1.69,15.13-1.38,22.77.19,4.53-.35,9.06.05,13.59.34,3.85.5,7.72.9,11.56.38,3.63.93,7.25,1.47,10.87a191.71,191.71,0,0,0,5.18,24.28,211.59,211.59,0,0,0,7.38,22c1.88,4.56,3.82,9.1,5.95,13.55q3.6,7.56,7.6,14.91a101.8,101.8,0,0,0,6.32,10.4c3.14,4.41,6.61,8.59,10,12.83C238.56,381,240.37,383.11,242.3,385.44Zm10,11.24c40.41,40.65,88.9,62.79,145.75,65.12,52,2.14,98.76-13.43,140.66-45.25-4-.77-7.51-1.44-11-2.08a3.69,3.69,0,0,0-2.89.84c-2.74,1.92-5.56,3.74-8.36,5.58a187.49,187.49,0,0,1-22.25,12.18c-5.23,2.51-10.74,4.46-16.14,6.61a129.67,129.67,0,0,1-18.91,6c-7.61,1.74-15.27,3.24-22.94,4.69a71.18,71.18,0,0,1-10.17,1.26c-1.93.09-3.28.49-4.45,2.11a4.75,4.75,0,0,1-2.75,1.68,28.27,28.27,0,0,1-5.21.28c-5.36,0-10.72,0-16.08.07a9.87,9.87,0,0,1-7.7-3.18,3.62,3.62,0,0,0-2.66-1.16c-3.25-.28-6.52-.51-9.73-1.07-10.05-1.73-20.1-3.5-29.79-6.79-5.51-1.88-11.06-3.66-16.5-5.71-4.41-1.66-8.73-3.55-13-5.53-3.09-1.44-6-3.31-9.07-4.8a141.1,141.1,0,0,1-16.78-10.1c-4-2.71-7.88-5.69-11.76-8.61a179.74,179.74,0,0,1-16.94-14.74c-1.3-1.26-2.56-2.56-4-4ZM533.2,74.32l0-.7a214.36,214.36,0,0,0-249.41-2.94,205.8,205.8,0,0,0-29.51,24.85c1.25,1.06,2.35,2,3.4,2.91s2.15,2.06,3.3,3.17c34.95-34.37,76.67-54,125.1-59.76a3.67,3.67,0,0,1,1.9-3.34c1.23-.87,2.5-1.71,3.69-2.65a7.06,7.06,0,0,1,4.67-1.48c5.92.06,11.84,0,17.75.07,6.95.1,4.86-.74,9.71,4.1a4.22,4.22,0,0,1,1.37,1.87c.21,1.38,1,1.54,2.13,1.69,5.44.67,10.92,1.2,16.29,2.27,7.26,1.45,14.44,3.31,21.63,5.08a67.85,67.85,0,0,1,6.84,2.16c4.28,1.56,8.55,3.12,12.76,4.84,4.43,1.82,8.89,3.59,13.14,5.78A189.26,189.26,0,0,1,519.92,75a6.48,6.48,0,0,0,5.68,1c1.31-.34,2.66-.49,4-.77S532,74.6,533.2,74.32ZM438.56,446a1.29,1.29,0,0,0,.46.09c6.55-1.39,13.16-2.58,19.65-4.23a191.26,191.26,0,0,0,35.69-13.14,204.24,204.24,0,0,0,24.74-14.12,13.6,13.6,0,0,0,1.53-1.43l-81.32-15.39a6.74,6.74,0,0,0-1.19,0,.26.26,0,0,0-.2.1c-.05.05,0,.15-.11.48.87,1.1,1.83,2.37,2.84,3.57a7.65,7.65,0,0,1,1.93,5.45c-.3,9.51-.42,19-.65,28.52-.09,3.64,0,7.37-3.38,9.89C438.51,445.77,438.55,445.89,438.56,446ZM608.85,63.89c-.49,2.93-.36,72.57.12,74.23a11.78,11.78,0,0,0,1.19,0c7.4-.64,14.79-1.31,22.19-1.93a5.57,5.57,0,0,0,5.27-5.57q.17-32.6.27-65.19a10.84,10.84,0,0,0-.22-1.53ZM637.78,426c.05-.81.12-1.51.12-2.21l-.27-64.05a12,12,0,0,0,0-1.2,5.9,5.9,0,0,0-4.65-4.69c-2.22-.22-4.45-.44-6.68-.63l-17.52-1.52V426ZM439.24,47.57c2.27,2.12,1.79,4.77,1.86,7.27q.27,9.93.51,19.87c.07,3.28-.12,6.57.22,9.82A6.69,6.69,0,0,1,440.11,90c-.53.61-1,1.3-1.47,2l.31.37,77.66-14.7A189.78,189.78,0,0,0,439.24,47.57ZM596.76,346.69a27.18,27.18,0,0,0,1.72-2.64c3.3-6.82,6.37-13.74,9.12-20.81a201.46,201.46,0,0,0,6.89-21.33c1.66-6.31,2.92-12.73,4.19-19.13.7-3.51,1.06-7.09,1.53-10.64a60.24,60.24,0,0,0,.74-9.22c-.07-4.37.51-8.75.55-13.13,0-4.14-.24-8.29-.4-12.43-.05-1.41-.08-2.82-.22-4.22-.35-3.39-.71-6.77-1.15-10.14-.7-5.29-1.21-10.61-2.27-15.82-1.4-6.86-3.21-13.64-4.93-20.43a131.51,131.51,0,0,0-5.92-17.61c-2.66-6.48-5.54-12.87-8.41-19.27-.8-1.77-1.92-3.41-3.08-5.45-1.83,1.55-3.45,2.82-4.94,4.22-1.65,1.54-1.61,1.67-.6,3.71,1.83,3.72,3.81,7.37,5.46,11.17A202.54,202.54,0,0,1,605.51,193c1.45,5.47,2.77,11,3.87,16.52.9,4.53,1.45,9.13,2.06,13.7.38,2.82.63,5.66.86,8.49.22,2.68.34,5.37.49,8,0,.64,0,1.28,0,1.91v10.22c0,.72,0,1.44,0,2.15a57.39,57.39,0,0,0-.69,7.11,71.59,71.59,0,0,1-1.24,13.26c-1.16,7.54-2.62,15.06-4.29,22.5-1.06,4.73-2.77,9.32-4.14,14a156.19,156.19,0,0,1-7.55,19.61c-1.56,3.49-3.23,6.92-5,10.68ZM637.91,61.23V58.42q.08-20.49.14-41c0-5.64,0-5.62-4.13-9.37a3.6,3.6,0,0,0-2.56-1c-7,0-13.9-.08-20.85-.12a16.83,16.83,0,0,0-1.77.18V61.23ZM608.82,428.77c-.47,3.59-.32,52.37.17,54.31h2.34c5.51-.07,11-.4,16.53-.13,3.77.18,6.59-.84,8.91-3.79a5.08,5.08,0,0,0,1.33-3.38c-.1-14.86-.13-29.71-.19-44.57v-2.44ZM205.93,29.45c-10.39,11.9-20.62,23.6-31,35.44l23.26,22,31.57-35.59ZM198.21,404.6,174.3,426.46l32.55,34,24-21.2ZM395.36,37c.25,19.15.5,38,.75,57l23-.63c-.24-18.92-.48-37.65-.73-56.33Zm22.89,416c.59-4,1-52.88.41-54.75H396.08c-.24,18.29-.48,36.43-.71,54.75ZM420,347.79l-22.65-.49c-.63,2.93-1.34,45.77-.82,48,7.51-.22,15,.78,22.77.17C419.48,379.59,419.71,363.87,420,347.79ZM236.24,79.13a12.85,12.85,0,0,0,1.1-.87q5.55-5.12,11.08-10.25a195.69,195.69,0,0,1,20.93-16.73A235.45,235.45,0,0,1,305.1,30.42a242.21,242.21,0,0,1,32.56-12.63,233.67,233.67,0,0,1,43-8.88,171.32,171.32,0,0,1,20.74-1.39c7.67.12,15.34.13,23,.55,5.87.32,11.74,1,17.57,1.88q9.09,1.32,18.09,3.26A219.44,219.44,0,0,1,489,21.62a251,251,0,0,1,24,10.17,239.38,239.38,0,0,1,31.92,18.9A219.19,219.19,0,0,1,565.61,67c1.55,1.39,1.92,1.41,3.84.17C547.28,46,507.76,20.5,459.11,10.07Q378.28-7.27,303.34,27.83A235.86,235.86,0,0,0,234.61,77ZM420,142.34c-.46-15.52-.27-30.58-.83-45.9l-22.88.41c-.45,5.72.38,43,1,45.49ZM480.63,243.4a75,75,0,0,0-7.95-34.48c-14-27.56-44.92-44-75.64-40.25-20.55,2.51-37.59,11.68-50.56,27.78-14.19,17.63-19.38,37.89-15.77,60.26a72.34,72.34,0,0,0,24.1,43.89c19.26,16.84,42,22.68,67.05,17.06C456.69,309.86,480.64,279.2,480.63,243.4ZM224.33,88.21c-1.64,1.94-3.08,3.52-4.38,5.21-3.63,4.76-7.4,9.42-10.74,14.37-4.31,6.41-8.35,13-12.34,19.63-1.93,3.2-3.58,6.58-5.19,10-3,6.19-6,12.34-8.63,18.68a170.42,170.42,0,0,0-7.49,21.69c-1.54,5.93-3.32,11.82-4.55,17.82-1.42,6.94-2.33,14-3.51,21a143.63,143.63,0,0,0-1.8,21.61c-.18,10.68-.32,21.37.93,32,.54,4.67,1,9.36,1.67,14s1.61,9.43,2.7,14.08c1.57,6.66,3.26,13.3,5.15,19.88,1.18,4.13,2.89,8.1,4.21,12.19a162.65,162.65,0,0,0,8.74,21c3.5,7.17,7.3,14.21,11.12,21.22a92.28,92.28,0,0,0,5.66,8.86c1.56,2.22,3.43,4.2,5.12,6.32q6,7.46,11.95,14.93c.09.11.28.13.51.23a4.52,4.52,0,0,0,.7-.52,4.84,4.84,0,0,0,.54-.78c-37.23-45.35-56.76-97.19-56.48-155.88s20.24-110.5,58.13-155.57Zm41.13,254-13.88,12.4,31.82,32.8,14.1-11.88Zm17.3-240-30,34.53,13,13L296.27,115ZM572.4,423.06c-2.23-.49-2.24-.5-3.23.35-2.07,1.76-4.06,3.61-6.19,5.29-6.27,4.93-12.43,10-18.92,14.63A227.58,227.58,0,0,1,501,467.15,237.8,237.8,0,0,1,467.9,478.4a252.81,252.81,0,0,1-26.46,5.31,188.65,188.65,0,0,1-22.34,2.14c-8.77.25-17.56,0-26.34-.35-5.32-.19-10.63-.89-15.94-1.4a185.72,185.72,0,0,1-23.51-4.16,225.22,225.22,0,0,1-32-9.83,246.59,246.59,0,0,1-29.94-13.95,220.22,220.22,0,0,1-26.95-17.38c-6.2-4.75-12.16-9.83-18.07-14.94-3.62-3.13-6.95-6.6-10.41-9.91a11.94,11.94,0,0,0-1.07-.84c-1.24,1.29-1.3,1.35-.17,2.46,3,2.91,5.91,5.84,9,8.6,4.64,4.14,9.33,8.21,14.12,12.17a195.22,195.22,0,0,0,22.63,16,256.31,256.31,0,0,0,28.08,14.91A241.67,241.67,0,0,0,349,481.14a237.15,237.15,0,0,0,37.15,6.22c6.17.57,12.37.79,18.56.95,3.58.1,7.17-.22,10.76-.36s7.14-.09,10.68-.45q9.82-1,19.63-2.43a199.94,199.94,0,0,0,34.36-8.17c7-2.35,14.08-4.72,20.91-7.58,6.61-2.77,13-6.12,19.42-9.33a209.16,209.16,0,0,0,27.11-16.59c6-4.28,11.72-9.06,17.49-13.72C567.53,427.69,569.78,425.45,572.4,423.06ZM286.3,361l65.1-60.38-5.89-6.13-65.3,60.36,5,5.2C285.49,360.31,285.8,360.55,286.3,361Zm64.56-173-64.33-58.89-5.71,6.49L345.1,194.2ZM213.73,74.37l50.6,46.14,5.74-6.54-50.4-46.28Zm6,348.34,50.09-46.48-6.47-5.88-49.73,45.84ZM622,139.71c32.77,69.94,33.57,140.14,1.65,210.65,1.29.57,2.14.35,2.71-1,1.59-3.74,3.26-7.45,4.88-11.17a201.37,201.37,0,0,0,10-29.41c1.77-6.78,3.14-13.66,4.47-20.54,1.09-5.62,1.86-11.3,2.75-17a30.91,30.91,0,0,0,.44-4.27c0-2-.26-4.06-.24-6.09,0-2.87.35-5.74.32-8.6-.09-6.92-.23-13.85-.48-20.77-.23-6.27-1-12.49-1.8-18.72-1-7.28-2.35-14.46-4-21.59-1.3-5.58-3.08-11-4.56-16.58a149.61,149.61,0,0,0-6.32-18.21c-2.12-5.16-4.36-10.28-6.56-15.4C624.51,139.45,624.27,139.37,622,139.71ZM425.38,447c4.43,0,8.87.83,11.75-3.61a3.77,3.77,0,0,1,1-1,2.66,2.66,0,0,0,1.09-2.48c0-2.24.08-4.47.15-6.71.27-8.62.56-17.23.79-25.85a4.45,4.45,0,0,0-.63-2.44c-1.36-2-2.85-3.85-4.36-5.71a2.53,2.53,0,0,0-1.51-1c-2.37-.1-4.74,0-7.27,0C426.07,414.59,425.73,430.66,425.38,447ZM385.3,45.77c-2.5.31-4.86.63-7.24.89a4,4,0,0,0-2.67,1.41,14.19,14.19,0,0,1-1.71,1.67A2.77,2.77,0,0,0,372.63,52c-.31,11-.67,22.06-.95,33.09a4.3,4.3,0,0,0,.71,2.41c1.35,2,2.84,3.86,4.35,5.73a2.42,2.42,0,0,0,1.49,1c2.3,0,4.6-.08,7.07-.15Zm41.14,47.34c.95,0,1.59,0,2.22,0,2-.09,4.24.33,5.88-.48s2.38-2.91,3.65-4.34a5.7,5.7,0,0,0,1.38-4.38c-.38-9.9-.72-19.8-.91-29.7-.05-2.31-.41-4.21-2.41-5.58-.91-.62-1.61-1.83-2.57-2-2.62-.58-5.32-.76-8.23-1.13C425.78,61.45,426.11,77.14,426.44,93.11Zm-41,354.07v-49c-2.31-.11-4.29-.28-6.27-.24a2.76,2.76,0,0,0-1.73,1c-1.33,1.6-2.48,3.34-3.82,4.93a5.1,5.1,0,0,0-1.17,3.73c.36,9.51.65,19,1,28.52.07,1.83-.35,3.89.36,5.43s2.57,2.78,4,4.1a3.36,3.36,0,0,0,1.59,1C381.39,446.9,383.52,447,385.41,447.18Zm216.43-18.43c0,1.59,0,3,0,4.45q0,21.46.11,42.93a3.59,3.59,0,0,0,.31,2.06,52,52,0,0,0,3.75,3.88V428.75ZM606,8.48l-.7-.47A9.28,9.28,0,0,1,603.91,10a5.53,5.53,0,0,0-2,4.79c0,14.87,0,29.75,0,44.62,0,.61.1,1.22.16,1.85h4ZM178.52,29.73l-6.42,6.69c4.4,4,8.62,7.86,13,11.83l6-6.88ZM185,442.42,172.49,454l6.16,6.89,12.69-11.79ZM390.05,40.27c-2.18.76-2.62,2.14-2.62,4,0,15.89,0,31.79,0,47.69,0,.62.07,1.23.11,1.89h2.52Zm4.6,355c0-1.76,0-3.27,0-4.77q.19-19.89.4-39.76c0-1.09-.13-2.18-.21-3.36h-2.69c-.12,2.76-.33,5.38-.33,8q0,17.49.16,35c0,1.44.1,2.87.19,4.3,0,.21.19.41.3.63ZM424.21,93.17c-.11-2-.25-3.76-.28-5.5-.1-5.51-.17-11-.25-16.53-.14-9.58-.3-19.17-.41-28.75,0-2.67-.1-2.88-2.83-4,.33,18.32.66,36.56,1,54.92Zm1,254.83h-3.14c-.07,16-.72,31.75-.6,47.69l2.78-.19C424.58,379.62,424.9,363.91,425.22,348ZM392.13,96.9a10,10,0,0,0-.14,1.15c-.06,12.77-.14,25.54-.15,38.31,0,2.12.25,4.24.4,6.56l2.72-.34c.34-15.34-.32-30.46-.34-45.68ZM421.4,398.36c-.32,17.92-.64,35.57-1,53.75l2.71-2.18c.29-17.4.59-34.44.88-51.58-.42,0-.81-.1-1.19-.1S422.06,398.3,421.4,398.36Zm0-301.71c.24,15.28.49,30.33.74,45.6l3.1-.22c-.32-15.29-.62-30.27-.93-45.38ZM390,141v-44h-2.49c-.05.57-.12,1-.12,1.5,0,13,0,26,0,39C387.37,139.37,388.45,140.08,390,141Zm4.58-47.05c-.23-19-.45-37.68-.68-56.51-1.24.28-1.79.88-1.83,2-.05,1.43-.25,2.86-.25,4.3q.07,24.18.18,48.38a11.84,11.84,0,0,0,.05,1.19,2.34,2.34,0,0,0,.28.63ZM392,398.19c0,.89,0,1.67,0,2.45q-.09,21.23-.18,42.45c0,2.47.19,4.94.25,7.42a2.13,2.13,0,0,0,1.83,2.22c.22-18.24.44-36.34.65-54.54Zm-2.32-3V348.44a4.09,4.09,0,0,0-2.32,3.91c.09,13.66.08,27.33.11,41,0,.61.1,1.22.16,1.89Zm-.33,52.4c.14-16.9.27-33.15.41-49.57l-2.27.22c0,.62,0,1.09,0,1.56l.3,45.26a3.7,3.7,0,0,0,.09,1.42C388.06,446.84,388.54,447,389.39,447.63Z"/><path class="cls-2" d="M548.41,664.46H837.89v21H548.41Z"/><path class="cls-3" d="M257,664.62v20.85H1c-.46-1.7-.62-15.81-.23-20.7C2.48,664.3,253.1,664.13,257,664.62Z"/><path class="cls-4" d="M529.31,664.8v20.41c-1.83.48-248,.65-251.37.21-.53-1.63-.72-16.58-.26-20.48l.17-.16c.06-.06.12-.13.18-.14a11.54,11.54,0,0,1,1.43-.14l249,0A3.73,3.73,0,0,1,529.31,664.8Z"/><path d="M128.35,602l31.26-79.49h6.25l31.89,80.38H182.18c-1.88-5.17-3.8-10.46-5.74-15.83H149.15c-1.83,5.28-3.65,10.54-5.49,15.88H112.74c-.38-.57-.88-1.27-1.35-2-6.25-9.66-12.52-19.31-18.71-29a3.23,3.23,0,0,0-3-1.79c-2.23,0-4.46-.19-6.91-.31v32.77c-1.85.52-11.59.63-14.75.21v-79c.18-.12.31-.28.44-.28,8.87-.22,17.73-.56,26.6-.58a32.28,32.28,0,0,1,12.35,2.63c8,3.29,12,9.39,12.76,17.86,1.06,11.44-5.61,20-14.54,23.86ZM82.66,557.93c2.1.13,4,.35,5.9.33a32.34,32.34,0,0,0,11.07-1.61,8.36,8.36,0,0,0,5.5-6.4,20.13,20.13,0,0,0,.46-3.79c.13-5.08-2-8.18-6.9-9.59a38.8,38.8,0,0,0-14.23-1.21c-.6.05-1.19.19-1.8.29Zm80.28-10.49-.44.07c-3.08,9.49-6.17,19-9.29,28.61h19.06C169.12,566.45,166,557,162.94,547.44Z"/><path d="M264.14,604.16c-1.66,0-3.25,0-4.83,0-1.11,0-1.46-.87-2-1.53q-8-10.46-16-20.92-9.78-12.75-19.55-25.49c-.47-.6-1-1.17-1.79-2.15V603H206.54V523.53c1.92,0,3.81,0,5.71,0,1.11,0,1.47.82,2,1.49q7.69,9.79,15.38,19.62L249,569.35c.42.53.87,1,1.62,1.94V523.72h13.54Z"/><path d="M509.41,564.1c0-11.1,2.31-20.88,8.76-29.4,5.73-7.56,13.25-11.8,22.78-12.39A39.71,39.71,0,0,1,559,525c8.12,3.4,13.4,9.56,16.55,17.66,2.84,7.28,3.51,14.88,3.26,22.61-.23,7.17-1.47,14.12-4.7,20.61q-8,16.06-25.77,18.24a41.76,41.76,0,0,1-14.06-.5c-8.39-1.82-14.53-6.66-18.78-14a47.23,47.23,0,0,1-5.71-19.13C509.59,568.13,509.52,565.81,509.41,564.1Zm54.86-1.41c-.11-5.62-.51-11.18-2.67-16.46-2.45-6-6.7-9.89-13.14-11a30.12,30.12,0,0,0-6.91-.3A15.2,15.2,0,0,0,530.08,541a24.83,24.83,0,0,0-4.45,9.22c-2,7.55-1.89,15.18-.7,22.83a30.33,30.33,0,0,0,3.68,10.82c2.23,3.82,5.37,6.63,9.76,7.53,8.46,1.74,18.29-.88,22.85-11.39C563.62,574.48,564.15,568.62,564.27,562.69Z"/><path d="M735.86,569.9V603H721.4V523.86c.15-.12.27-.3.39-.3,8.31-.24,16.62-.62,24.93-.64a33.9,33.9,0,0,1,16.39,3.85c5.93,3.18,9.1,8.24,10.14,14.81,1.29,8.18-.85,15.25-6.89,20.92-2.06,1.93-4.62,3.34-7.2,5.16l23.12,35.28H766.1c-.27-.39-.7-.94-1.08-1.53-6.21-9.59-12.45-19.15-18.57-28.8-1.05-1.66-2.12-2.55-4.14-2.47S738.19,570,735.86,569.9Zm.13-12c5.38.63,10.62.7,15.77-.81,4.5-1.32,6.59-3.94,7-8.6.07-.72.09-1.44.09-2.16,0-5.2-2-8-7-9.46a37.65,37.65,0,0,0-15.2-1,3.64,3.64,0,0,0-.68.23Z"/><path d="M829.42,554.68v12H803.76c-.53,1.78-.68,20.21-.21,23.9h35.7V603h-50V523.9c1.6-.48,46.31-.66,50.52-.17V536.1H803.5v18.58Z"/><path d="M388.76,554.69v12c-8.68.09-17.33,0-26.12.06v23.76h35.73v12.46h-49.8v-79.3H399V536H362.66v18.61c2.75.09,5.59,0,8.43,0h17.67Z"/><path d="M335,527.77l-5.78,11.6a19.06,19.06,0,0,0-7.18-3.69,30.13,30.13,0,0,0-11.42-.64,18.79,18.79,0,0,0-11.81,6.71c-4.7,5.42-6.83,11.85-7.33,18.86-.46,6.52,0,13,2.84,19s7.18,10.49,13.89,11.77c8.26,1.58,15.71-.14,21.59-6.66a8.91,8.91,0,0,1,.79-.7c2.16,3.72,4.27,7.38,6.45,11.15a22.31,22.31,0,0,1-8.22,6c-6.8,3.07-14,3.75-21.32,3.09a32.33,32.33,0,0,1-14.87-4.86,30.58,30.58,0,0,1-12.36-15.45c-4.82-13.06-5.26-26.29.13-39.28,4-9.59,10.69-16.75,20.68-20.43a33.82,33.82,0,0,1,11.27-2c6.85-.09,13.55.68,19.76,3.88C333,526.61,333.92,527.15,335,527.77Z"/><path d="M499.92,527.65l-5.82,11.68c-.72-.51-1.34-1-2-1.39a18.27,18.27,0,0,0-6.89-2.61c-13.16-2.4-21.79,2.79-26.56,14.86a38.55,38.55,0,0,0-.26,27.46c2.08,6,5.86,10.61,12,13,7,2.7,17.68,1.52,23.85-5.39L495.4,584l3.29,5.65c1.07,1.86,2.12,3.72,3.22,5.63a22.88,22.88,0,0,1-8.62,6.07c-10.29,4.13-20.73,4.48-31.08.48-8.55-3.29-14-9.86-17.27-18.25-3.36-8.6-4-17.55-2.94-26.65a40.71,40.71,0,0,1,11.56-24.68,31.86,31.86,0,0,1,21.72-9.83c6.45-.36,12.79.14,18.85,2.51C496,525.63,497.85,526.65,499.92,527.65Z"/><path d="M698.21,566.66H670.52c-.24,3.12-.09,6.12-.12,9.11s0,6.08,0,9.12V603H656.32V523.69h52.13V536H670.56v18.65h27.65Z"/><path d="M17.33,603H3.22V523.88c1.84-.5,44.25-.72,52.09-.25V536H17.7c-.51,1.79-.65,14.84-.2,18.63H45.08v12H17.33Z"/><path d="M591.56,523.63h52.07V536H606.06c-.55,1.78-.7,14.43-.25,18.63H633.4v12H605.68v36.25H591.56Z"/><path d="M569.63,630v7.08c0,1.52,0,3,0,4.56,0,1.18-.66,1.25-1.67,1V626.81c2.24-.33,2.25-.34,3.25,1.35,2.23,3.78,4.45,7.57,6.67,11.33l.31-.09c.06,0,.17-.08.17-.12,0-4.15,0-8.3,0-12.6l1.67-.08v15.79c-2.09.61-2.1.62-3.16-1.16q-3.35-5.65-6.68-11.33Z"/><path d="M827.32,630c0,2.53,0,5,0,7.58,0,1.35,0,2.72,0,4.07,0,1-.1,1-1.67.88V626.66l2.28-.12c2.56,4.34,5.11,8.66,7.84,13.27.6-1.63.26-3,.32-4.38s0-2.88,0-4.32,0-2.86,0-4.41h1.64v15.7c-2.11.58-2.12.59-3.18-1.18l-6.68-11.32Z"/><path d="M516.84,630v2.49c0,3,0,5.92,0,8.88,0,1.12-.31,1.71-1.67,1.22V626.85c2.2-.41,2.21-.41,3.2,1.26l5.72,9.7a4.53,4.53,0,0,0,1.44,1.62v-12.7h1.75v15.78c-2.21.35-2.23.36-3.17-1.23-1.92-3.23-3.82-6.47-5.73-9.7-.34-.58-.71-1.14-1.07-1.72Z"/><path d="M87.22,628.07v5.49h8.25l.13,1.59H87.17v6h7a5.08,5.08,0,0,1,1.66.07c.37.12.6.63,1.22,1.34a38,38,0,0,1-6,.22c-1.82,0-3.64,0-5.57,0V626.7H96v1.37Z"/><path d="M318.18,633.54v1.62H309.9V641c3,.38,6.07-.06,9.07.25.55,1.2,0,1.54-1,1.54h-9.76V626.69h10.55c0,.5-.05.88-.08,1.45h-8.77v5.4Z"/><path d="M205.07,642.66c-1,.26-1.6-.06-1.68-1.1s-.06-1.92-.12-2.87c-.13-2-.83-2.74-2.76-2.91-.63,0-1.28,0-1.92,0h-3v6.87h-1.61v-16c2.05,0,4,0,6,0,2.17,0,4,.63,4.91,2.72s.33,4.06-1.69,5.67a4,4,0,0,1,1.92,3.52C205,639.82,205.07,641.16,205.07,642.66Zm-9.49-8.43c1.88,0,3.55.09,5.2,0a2.93,2.93,0,0,0,2.75-2.81,2.9,2.9,0,0,0-2.36-3.14,14.41,14.41,0,0,0-5.59.06Z"/><path d="M14.65,634.88a30,30,0,0,1-.92,3.75A6.4,6.4,0,0,1,7.25,643a6.55,6.55,0,0,1-6.52-4.34,11.16,11.16,0,0,1-.15-7.52,6.68,6.68,0,0,1,6.69-4.83A6.76,6.76,0,0,1,14,631.36C14.32,632.43,14.41,633.55,14.65,634.88Zm-1.78-.14a25.44,25.44,0,0,0-1-3.78,4.68,4.68,0,0,0-4.49-3,4.74,4.74,0,0,0-4.78,2.95,8.9,8.9,0,0,0,.08,7.66,4.72,4.72,0,0,0,4.39,2.84,4.65,4.65,0,0,0,4.64-2.79A26.88,26.88,0,0,0,12.87,634.74Z"/><path d="M499.82,634.88a32.31,32.31,0,0,1-.95,3.79,6.39,6.39,0,0,1-6.51,4.3,6.56,6.56,0,0,1-6.49-4.38,11.13,11.13,0,0,1-.11-7.53,6.63,6.63,0,0,1,6.71-4.77,6.71,6.71,0,0,1,6.65,4.88A36.21,36.21,0,0,1,499.82,634.88Zm-1.75-.09a27.64,27.64,0,0,0-1.05-3.9,5.08,5.08,0,0,0-9.26.08,8.6,8.6,0,0,0,.28,7.85,4.93,4.93,0,0,0,8.65.12A21.06,21.06,0,0,0,498.07,634.79Z"/><path d="M810.34,635.1a26.81,26.81,0,0,1-1.4,4.44c-1.28,2.53-3.56,3.52-6.36,3.43a6.35,6.35,0,0,1-5.93-3.75,10.72,10.72,0,0,1-.4-8.17,6.62,6.62,0,0,1,6.72-4.76,6.7,6.7,0,0,1,6.63,4.9A37.8,37.8,0,0,1,810.34,635.1Zm-1.84-.35a26,26,0,0,0-.87-3.6,4.75,4.75,0,0,0-4.61-3.21,4.8,4.8,0,0,0-4.85,3.2,9,9,0,0,0,.09,7.23,4.76,4.76,0,0,0,4.51,3,4.65,4.65,0,0,0,4.63-2.82A27.24,27.24,0,0,0,808.5,634.75Z"/><path d="M389.41,635.77v6.77c-1,.32-1.7.34-1.7-.9,0-4.94,0-9.88,0-15,2.38,0,4.59-.06,6.8,0a4.37,4.37,0,0,1,4.3,2.88,4.26,4.26,0,0,1-1.25,5,5.58,5.58,0,0,0-.5.55c3,1.85,1.3,5,2.19,7.48-1.13.4-1.86.27-2-.94-.09-1-.07-1.91-.12-2.87-.13-2.07-.87-2.83-3-2.93C392.66,635.71,391.15,635.77,389.41,635.77Zm.08-1.5h2.82c.64,0,1.28,0,1.91,0a3.07,3.07,0,1,0,.08-6.14c-1.57-.09-3.14,0-4.81,0Z"/><path d="M595.4,637.86c1.16-.45,1.67-.19,1.92.85.61,2.52,4.08,3.39,6.4,2.24a2.61,2.61,0,0,0,1.61-2.45,2.3,2.3,0,0,0-1.44-2.29c-1.24-.53-2.55-.89-3.81-1.39a11.65,11.65,0,0,1-2.78-1.32,3.87,3.87,0,0,1-.29-5.89c3.09-2.87,8.62-1.18,9.68,3.09-.83.25-1.43.56-2-.66a4.21,4.21,0,0,0-5.91-1.6,2.17,2.17,0,0,0-.21,3.77,12.51,12.51,0,0,0,2.62,1.11,27.07,27.07,0,0,1,4,1.59,4.14,4.14,0,0,1,.55,6.73c-2,1.68-4.43,1.67-6.81.93A4.8,4.8,0,0,1,595.4,637.86Z"/><path d="M223.32,635.21v5.9c2.7,0,5.31,0,7.91,0,1,0,1.56.26,1.13,1.53H221.47V626.7H232c.47,1.09,0,1.44-1,1.42-2.47,0-4.94,0-7.57,0v5.42h8c.39,1.14.29,1.7-.91,1.68C228.16,635.18,225.85,635.21,223.32,635.21Z"/><path d="M112.09,626.57c2.09,0,4,0,5.91,0,2.24,0,4.13.59,5.08,2.82s.14,4-1.69,5.58c2.84,1.93,1.5,4.94,2.14,7.59-1.19.36-1.93.2-2-1.14,0-.88,0-1.76,0-2.64-.1-2-.89-2.86-2.94-3-1.12-.07-2.24,0-3.36,0h-1.31v6.71l-1.79.27Zm1.82,7.67c1.67,0,3.17.06,4.66,0a3,3,0,0,0,.15-6.07c-1.56-.12-3.14,0-4.81,0Z"/><path d="M280.53,626.58c2.26,0,4.33,0,6.4,0a4.58,4.58,0,0,1,4.6,2.82,4.31,4.31,0,0,1-1.29,5.19c-.12.11-.21.24-.37.41,2.81,1.91,1.44,4.92,2.1,7.57-1.22.35-2,.16-2-1.17,0-.88,0-1.76-.05-2.63-.09-2-.83-2.83-2.71-3-1.58-.1-3.16,0-4.9,0v6.71l-1.78.23Zm1.85,1.55v6.11h2.47c.72,0,1.44,0,2.15,0,1.94-.15,3-1.21,3.06-3a2.85,2.85,0,0,0-2.89-3.12C285.61,628,284,628.13,282.38,628.13Z"/><path d="M730.11,626.63h2.44c1.93,5.25,3.86,10.53,5.84,15.91-1.18.39-1.84.27-2.19-.84s-.88-2.38-1.35-3.64h-7c-.45,1.23-.91,2.41-1.31,3.6-.36,1-1,1.39-2.2.81Zm4.15,9.61c-1-2.73-1.89-5.16-3-8.07l-2.85,8.07Z"/><path d="M428,642.89c-3.38-.39-2.32-3.43-4-4.81h-6.72c-.43,1.17-.88,2.34-1.29,3.53-.35,1-.91,1.46-2.22.87l5.79-15.84h2.45C424,631.85,425.92,637.13,428,642.89Zm-7.2-14.71c-1.06,3-1.94,5.42-2.84,8h5.74Z"/><path d="M358.63,642.5l5.8-15.84h2.47c1.93,5.25,3.84,10.47,5.8,15.82-1,.42-1.73.46-2.13-.66-.44-1.27-.93-2.51-1.42-3.79h-7c-.46,1.23-.95,2.48-1.38,3.73C360.46,642.71,359.87,643,358.63,642.5Zm10-6.27c-1-2.72-1.89-5.15-2.95-8.07-1.07,3-1.93,5.46-2.84,8.07Z"/><path d="M652.12,626.65h2.46l5.78,15.76c-1.12.68-1.75.37-2.13-.67-.43-1.19-.87-2.38-1.34-3.67h-7c-.44,1.17-.86,2.36-1.32,3.53-.41,1-.43,1-2.22,1C648.26,637.22,650.18,632,652.12,626.65Zm1.44,2-.42.06-2.66,7.46h5.75C655.3,633.57,654.43,631.13,653.56,628.68Z"/><path d="M29.89,626.58l1.82.11v8.23c0,4.62,1.16,6.44,4.13,6.49s4.25-1.81,4.25-6.37v-8.32l1.78-.11c0,3.88.17,7.63,0,11.36-.18,3.12-2.89,5.11-6.22,5a5.55,5.55,0,0,1-5.67-5.37C29.77,634,29.89,630.43,29.89,626.58Z"/><path d="M175.9,626.63h1.57a1.87,1.87,0,0,1,.23.62c0,3.28.08,6.56,0,9.84a6,6,0,0,1-12,.2c-.11-3.5,0-7,0-10.61h1.72c0,.69.11,1.38.11,2.07,0,2.88,0,5.76.05,8.64a4.15,4.15,0,0,0,8.29,0c.1-2.71,0-5.43.05-8.15Z"/><path d="M64.8,642.67H62.41l-5.49-15.8c1.3-.66,1.91-.26,2.33,1,1.15,3.56,2.4,7.09,3.63,10.63.17.51.41,1,.79,1.86,1.65-4.78,3.16-9.19,4.72-13.69h1.94C68.45,632.12,66.63,637.38,64.8,642.67Z"/><path d="M336.52,642.64h-1.76V626.69a60.79,60.79,0,0,1,7.27.07,4.33,4.33,0,0,1,3.62,4.87,4.42,4.42,0,0,1-4.23,4.11c-1.58.11-3.17,0-4.9,0Zm0-8.38h2.6c.48,0,1,0,1.44,0,2.09-.11,3.23-1.19,3.24-3s-1.12-3-3.21-3.1c-1.32-.07-2.66,0-4.07,0Z"/><path d="M143.5,642.51V628.17h-5.16l-.07-1.48h12.24c.27.82.29,1.43-.81,1.42h-4.34v3.42c0,3.27,0,6.54,0,9.81C145.37,642.45,145.07,643.06,143.5,642.51Z"/><path d="M626.79,628.17h-5.17c0-.57-.06-1-.1-1.5h12.31v1.43H628.6v5.67c0,2.55,0,5.11,0,7.66,0,1-.29,1.55-1.72,1.18,0-1.45-.07-3-.09-4.55s0-3.35,0-5Z"/><path d="M756.07,628.08h-5.21v-1.41H763.1v1.42h-5.23v14.42c-1.31.48-1.82.14-1.81-1.08,0-3.52,0-7,0-10.55Z"/><path d="M440.43,626.65h12.14v1.45H447.5v14.28c-1.84.33-1.89.33-1.9-1,0-3.44,0-6.87,0-10.31V628.1c-1.54,0-2.93,0-4.33,0C440.36,628.12,440.15,627.67,440.43,626.65Z"/><path d="M700.42,626.67h1.68v14.44h7c.64,0,1.2.2,1,.92a1.3,1.3,0,0,1-1,.7c-2.86.06-5.72,0-8.72,0Z"/><path d="M675.45,642.77V626.71h1.72v14.4H683a8.3,8.3,0,0,1,1.66.07c.23,0,.57.46.53.66s-.36.6-.58.89c0,0-.15,0-.23,0Z"/><path d="M778.35,626.66h1.54v15.91c-1.42.46-1.56-.29-1.55-1.32,0-4,0-8,0-12Z"/><path d="M550.05,626.66h1.44v15.92h-1.44Z"/><path d="M468,626.7l1.46-.07v16H468Z"/><path d="M313.17,625.1c.91-1.26,1-3.6,3.85-2.73C315.65,623.45,315.3,625.35,313.17,625.1Z"/><path class="cls-5" d="M353.68,302.57c2.09,1.65,4,3.23,6,4.7a75.36,75.36,0,0,0,43.14,15.21c19.77.72,37.43-5.08,52.71-17.45a77,77,0,0,0,21.09-93.94,80.37,80.37,0,0,0-22.26-28.17A78.58,78.58,0,0,0,399.74,166a76.35,76.35,0,0,0-36.44,12.2c-3.07,2-5.9,4.37-8.84,6.56-.44.33-.9.63-1.44,1-21.43-19.64-42.79-39.23-64.35-59,1-1.26,1.93-2.43,2.9-3.56,1.62-1.87,3.27-3.72,4.9-5.58a15.74,15.74,0,0,0,1.21-1.49c1.23-1.78,1.25-2.44-.32-4-2.7-2.6-5.5-5.1-8.29-7.6-1.42-1.28-2.93-2.47-4.41-3.68s-2.15-1.2-3.43.22c-2.34,2.62-4.61,5.3-6.92,8-.68.77-1.38,1.52-2.25,2.48-2.69-2.47-5.26-4.81-8.09-7.39a198.55,198.55,0,0,1,41.66-32.29C325,60.55,359.72,48,371.78,48c-2,1.78-1.6,4-1.65,6.07-.27,10.23-.48,20.46-.84,30.68a7.78,7.78,0,0,0,1.81,5.5,42.52,42.52,0,0,1,3.36,4.36,4.41,4.41,0,0,0,4.24,2.1c2.07,0,4.13,0,6.41,0,.11,1.76.27,3.25.28,4.75.11,12.07.22,24.15.25,36.22a4.31,4.31,0,0,0,2,4.05,25.77,25.77,0,0,1,3.13,2.59,5.71,5.71,0,0,0,4.14,1.47c14.64-.09,29.27-.1,43.91-.14,6.95,0,13.91,0,20.87-.09,4.06,0,8.13-.16,12.19-.27,9.75-.27,17.67,3.68,24.3,10.53a11.52,11.52,0,0,1,3,5.93,43.08,43.08,0,0,1,1,7.57c.15,15.51.19,31,.26,46.54.07,17.51.21,35,.18,52.53q-.06,26.86-.45,53.73c-.09,6-2,11.23-7.14,15-4.5,3.3-9.07,6.3-14.75,7a36.19,36.19,0,0,1-4.53.33q-21.72-.06-43.42-.19c-11.36-.07-22.71-.12-34.06-.31a9.33,9.33,0,0,0-6.57,2.37c-1,.83-1.91,1.7-2.89,2.51s-1.08,2.05-1.08,3.27q-.09,13.92-.22,27.83c0,4.48-.15,8.95-.25,13.43,0,.54-.11,1.08-.21,1.95h-3.35c-1.12,0-2.24,0-3.35.09a3.53,3.53,0,0,0-2.77,1.62c-1.21,1.78-2.58,3.46-3.95,5.12a6.23,6.23,0,0,0-1.49,4.39c.26,8.95.42,17.9.62,26.86.05,2.15.13,4.31.16,6.47a5.16,5.16,0,0,0,1.78,4.24,3.33,3.33,0,0,1,.93,1.43c-43.27-7.26-80.09-26.78-111.12-58.17,1.77-1.68,3.3-3.16,4.85-4.61s3.06-2.81,4.46-4.09c2.33,2.22,4.59,4.34,6.82,6.5,1.26,1.22,2.41,2.57,3.74,3.72s1.65,1.07,3.11,0c4.84-3.44,9.06-7.58,13.42-11.58,1.27-1.16,1.31-1.69.1-3-2.17-2.34-4.43-4.6-6.63-6.92-1.26-1.32-2.47-2.67-3.93-4.25Z"/><path class="cls-6" d="M606,351.52V426a28.11,28.11,0,0,1-4.87,0c-6.52-1.18-13-2.55-19.52-3.79q-26.15-5-52.28-9.92c-3.93-.74-7.86-1.45-11.78-2.19a17.6,17.6,0,0,1-1.78-.52c0-1.3,0-2.56,0-3.82q.15-16.8.32-33.59l.48-51.58c.13-13.52.35-27,.38-40.54q.06-33.12-.08-66.22-.11-28.31-.39-56.62-.32-36.22-.7-72.45c0-1.42,0-2.85,0-4.4,3.1-.6,6-1.18,8.87-1.72q37.22-7,74.4-14.09c2.28-.43,4.48-1,7-.56v74.51c-1.21.24-2.46.44-3.67.75-11.49,2.94-18.68,10.3-21.94,21.56A52.59,52.59,0,0,0,578.76,176c0,4.56.11,9.12.09,13.67-.07,16.08-.25,32.15-.23,48.23,0,23.35.21,46.7.31,70.05,0,2.88-.2,5.76-.14,8.63.09,4.81.43,9.62,2,14.19,3.86,11.07,11.4,18.05,23,20.35Z"/><path class="cls-5" d="M278.11,352.53c-1.27-1.26-2.37-2.3-3.41-3.39-2.44-2.53-4.86-5.08-7.28-7.62-2-2.06-3.06-2.19-5.06-.31-4.07,3.84-8.09,7.72-12.1,11.62-1.3,1.26-1.32,1.6,0,3,3.12,3.32,6.31,6.58,9.47,9.86.6.62,1.17,1.27,1.93,2.08l-9.23,8.59c-1.63-2-3.14-3.81-4.62-5.66-2.64-3.3-5.22-6.66-7.9-9.94-3-3.67-5.16-7.88-7.5-12a204.51,204.51,0,0,1-25.6-76.32,204.12,204.12,0,0,1,11.74-97.77,205,205,0,0,1,18.61-37A217.05,217.05,0,0,1,252.24,117c.45-.55.93-1.08,1.58-1.83l8.43,7.65c-1.74,2.08-3.29,4-4.87,5.83-2,2.32-4,4.59-5.92,6.92-1.25,1.51-1.29,2.16.08,3.53,4,4,8.07,7.93,12.19,11.8,1.76,1.64,2.14,1.58,3.69-.14q4.88-5.44,9.66-11c1.57-1.8,1.85-1.85,3.6-.24q12.38,11.34,24.76,22.66,13.46,12.28,26.94,24.54,4.61,4.19,9.24,8.36a19.84,19.84,0,0,0,1.77,1.24c-10.54,14.59-16.15,30.39-16.05,48.12s5.68,33.37,16.28,47.61ZM225.82,247.45h-.18q.24,23.13.45,46.27c.07,8.07.06,16.15.12,24.22,0,2.8.72,5.33,3,7.23a5.86,5.86,0,0,0,8.22-.23,7.77,7.77,0,0,0,2.47-5.78c0-3,0-5.92,0-8.87q-.16-68.7-.31-137.4a7.77,7.77,0,0,0-1-4.12c-2.45-4.09-6.83-4.92-10.19-1.49a8.1,8.1,0,0,0-2.33,5.6c-.15,3.35-.27,6.7-.27,10.06Q225.8,215.19,225.82,247.45Z"/><path class="cls-7" d="M251.51,92.87,237.43,80a233.84,233.84,0,0,1,65-46.93Q375.24-2.16,454.65,13.57C496,21.82,532.45,40.29,564.38,68c-1.08,1.39-2.6,1.1-3.8,1.34-6.64,1.33-13.31,2.47-20,3.76a3,3,0,0,1-2.66-.64,185.93,185.93,0,0,0-17.57-12,192.17,192.17,0,0,0-23.69-12.55,196,196,0,0,0-30.33-11c-7.09-1.84-14.23-3.55-21.41-5-5.22-1-10.54-1.66-15.84-2.22-4.89-.51-9.82-.7-14.73-1-3.18-.19-6.37-.42-9.56-.4-3.58,0-7.17.23-10.75.46-4.11.26-8.24.51-12.33,1-4.66.55-9.31,1.27-13.94,2.07a189.33,189.33,0,0,0-25.08,6.08Q334.09,40.6,325.61,44c-5.78,2.29-11.53,4.71-17.11,7.45a213.53,213.53,0,0,0-43.69,29c-3.05,2.69-6.18,5.29-9.19,8C254.22,89.72,253,91.22,251.51,92.87Z"/><path class="cls-7" d="M567.16,422.09c-1.65,3.21-18.52,16.6-30.52,24.26-31.59,20.19-66,32.69-103.25,36.72-49.26,5.34-95.78-3.91-139.42-27.3a232.68,232.68,0,0,1-57.7-43.94c4.22-4.35,8.64-8.09,13-12.21a14.62,14.62,0,0,1,1.39,1.13,223.74,223.74,0,0,0,17.26,15.75c3.52,2.86,7.16,5.59,10.88,8.18,5.36,3.72,10.73,7.48,16.33,10.82s11.45,6.33,17.33,9.17c5.45,2.63,11,5.06,16.66,7.21s11.43,4,17.27,5.66c7,1.94,14,3.59,21.12,5.12,3.88.83,7.87,1.19,11.82,1.68,3.31.41,6.63.73,9.95,1,2.12.19,4.25.19,6.37.41,4.77.51,9.55-.31,14.31.11,4.29.37,8.54-.15,12.8-.3A141.15,141.15,0,0,0,436.9,464c4.32-.6,8.64-1.3,12.92-2.15,3.52-.7,7-1.71,10.46-2.51a177.93,177.93,0,0,0,23.27-7.21c5.21-2,10.34-4.22,15.36-6.63,6-2.9,12-5.91,17.83-9.22,4.85-2.75,9.47-5.9,14.08-9,3.75-2.56,7.36-5.32,11-8.08a5.44,5.44,0,0,1,4.84-1.1c6.71,1.38,13.46,2.5,20.19,3.72C566.94,421.83,567.05,422,567.16,422.09Z"/><path class="cls-7" d="M239.32,388.37l-13.14,12.26c-1.89-2.18-3.81-4.28-5.59-6.48-8.77-10.84-16-22.69-22.87-34.78a201.65,201.65,0,0,1-13-28.55,231.87,231.87,0,0,1-9.62-32.31c-1.29-5.91-2.36-11.88-3.2-17.87-.87-6.22-1.64-12.49-1.91-18.76-.4-9.25-.57-18.53-.36-27.78.14-6,1.06-11.9,1.73-17.83a210.73,210.73,0,0,1,5.66-29.55,239,239,0,0,1,13.17-37.44,242.11,242.11,0,0,1,19.44-35.19,254.64,254.64,0,0,1,16.61-21.94,13,13,0,0,1,1.16-1.06c2.6,2.33,5.16,4.6,7.7,6.88,1.54,1.38,3.05,2.78,4.58,4.16,1.14,1,1.25,2,.29,3.07a168.57,168.57,0,0,0-15.12,20c-3.71,5.85-7.55,11.64-10.77,17.76-3.86,7.32-7.42,14.83-10.58,22.48A189.31,189.31,0,0,0,194.24,194a183.28,183.28,0,0,0-4.1,21.83c-.62,5.37-1.25,10.74-1.85,16.12a47.93,47.93,0,0,0-.41,5.47c0,5.08.25,10.16.23,15.24,0,2-.05,3.92.09,5.91.44,6.34,1,12.66,1.86,19,1.08,7.67,2.59,15.23,4.41,22.74a149.52,149.52,0,0,0,6.46,21c2.79,6.86,5.33,13.85,8.5,20.53a161.31,161.31,0,0,0,12.2,21.91c3,4.34,5.75,8.8,8.8,13.08,2.5,3.5,5.27,6.8,7.91,10.19C238.63,387.39,238.89,387.78,239.32,388.37Z"/><path class="cls-7" d="M600.87,348c16.55-32.39,24.89-66.62,24.53-102.89S615.92,175,598.65,142.8c7-2.62,14.15-2.13,21.17-3,1.21,2.43,2.36,4.61,3.39,6.85a244.55,244.55,0,0,1,11.61,30.42,199.49,199.49,0,0,1,6.49,27.19q1.44,9.21,2.73,18.43a47.7,47.7,0,0,1,.52,5.71c.2,9.59.71,19.18.39,28.75a218.88,218.88,0,0,1-3.55,31.32,243.84,243.84,0,0,1-7.48,30.4,237.06,237.06,0,0,1-11.41,29.2c-.82,1.75-1.79,2.34-3.67,2.13-5-.56-10-.95-15-1.46A25.09,25.09,0,0,1,600.87,348Z"/><path class="cls-8" d="M502,82.89l11.57-2.17c.06,2.6.12,5,.15,7.34q.36,36.22.71,72.45c.16,17.19.38,34.38.46,51.58q.15,31.42.09,62.85c-.05,16.79-.3,33.58-.46,50.38s-.31,33.74-.48,50.61c-.11,10.56-.26,21.11-.39,31.67,0,.47-.06.94-.11,1.67L502,407.09Q503.48,245,502,82.89Z"/><path class="cls-6" d="M499.54,406.58c-2.73-.49-5.23-.91-7.71-1.39-16.4-3.11-32.77-6.33-49.2-9.26-3.65-.65-7.49-.26-11.24-.33-1.58,0-3.16,0-5,0,.44-16,.87-31.73,1.31-47.69,1.15,0,2,0,2.86,0,12.79.22,25.58.49,38.36.62a65.38,65.38,0,0,0,9.79-.66c8.05-1.14,14-5.79,19.15-11.78q.84-1,1.71-2s.14,0,.52-.13C499.88,358.13,499.71,382.19,499.54,406.58Z"/><path class="cls-6" d="M500.05,156.05c-2.92-2.83-5.48-5.57-8.31-8a25.06,25.06,0,0,0-16.46-6.22c-7.59-.08-15.17-.17-22.76-.14s-15.18.21-22.77.33h-1.94c-.77-15.2-1-30.32-1.32-45.65a43.19,43.19,0,0,1,5.82-.84c5.09,0,10-1.37,14.89-2.28,17.19-3.19,34.35-6.49,51.52-9.74a4.37,4.37,0,0,1,.81.08Q499.8,119.73,500.05,156.05Z"/><path class="cls-5" d="M586.17,153.41c1.66,3.39,3.18,6.26,4.5,9.22a206.34,206.34,0,0,1,11.12,31.1,218.55,218.55,0,0,1,5.56,28.67c1.49,11.69,1.45,23.41,1.36,35.15-.1,14.16-2.86,27.89-6.44,41.48a195.48,195.48,0,0,1-13.37,35.62c-.38.79-.78,1.57-1.2,2.35a6.57,6.57,0,0,1-.52.68,10.85,10.85,0,0,1-2.7-4.13,39.94,39.94,0,0,1-3.2-15.87c-.11-17.66-.12-35.33-.15-53q0-15,0-30c0-20.78,0-41.56.14-62.35a38.83,38.83,0,0,1,3.08-15.64C584.8,155.73,585.39,154.82,586.17,153.41Z"/><path class="cls-9" d="M242.3,385.44c-1.93-2.33-3.74-4.44-5.47-6.62-3.36-4.24-6.83-8.42-10-12.83a101.8,101.8,0,0,1-6.32-10.4q-4-7.35-7.6-14.91c-2.13-4.45-4.07-9-5.95-13.55a211.59,211.59,0,0,1-7.38-22,191.71,191.71,0,0,1-5.18-24.28c-.54-3.62-1.09-7.24-1.47-10.87-.4-3.84-.56-7.71-.9-11.56-.4-4.53.14-9.06-.05-13.59-.31-7.64.53-15.2,1.38-22.77.83-7.37,2.08-14.66,3.6-21.9,1-4.67,2.42-9.25,3.69-13.86a190.78,190.78,0,0,1,9.69-26.46A222.25,222.25,0,0,1,220.8,139.4a227.26,227.26,0,0,1,14.48-22c2.45-3.34,5.17-6.48,7.73-9.74.64-.82,1.42-1.27,2.21-.54,1.86,1.71,3.59,3.57,5.56,5.56-32.28,38.34-49.09,82.78-49.3,132.79s16.16,94.46,48,133.33c-1.2,1.23-2.27,2.39-3.42,3.46S243.75,384.24,242.3,385.44Z"/><path class="cls-9" d="M252.3,396.68l7.32-6.64c1.45,1.45,2.71,2.75,4,4a179.74,179.74,0,0,0,16.94,14.74c3.88,2.92,7.73,5.9,11.76,8.61a141.1,141.1,0,0,0,16.78,10.1c3.07,1.49,6,3.36,9.07,4.8,4.27,2,8.59,3.87,13,5.53,5.44,2.05,11,3.83,16.5,5.71,9.69,3.29,19.74,5.06,29.79,6.79,3.21.56,6.48.79,9.73,1.07a3.62,3.62,0,0,1,2.66,1.16,9.87,9.87,0,0,0,7.7,3.18c5.36-.09,10.72,0,16.08-.07a28.27,28.27,0,0,0,5.21-.28,4.75,4.75,0,0,0,2.75-1.68c1.17-1.62,2.52-2,4.45-2.11a71.18,71.18,0,0,0,10.17-1.26c7.67-1.45,15.33-2.95,22.94-4.69a129.67,129.67,0,0,0,18.91-6c5.4-2.15,10.91-4.1,16.14-6.61a187.49,187.49,0,0,0,22.25-12.18c2.8-1.84,5.62-3.66,8.36-5.58a3.69,3.69,0,0,1,2.89-.84c3.49.64,7,1.31,11,2.08-41.9,31.82-88.67,47.39-140.66,45.25C341.2,459.47,292.71,437.33,252.3,396.68Z"/><path class="cls-9" d="M533.2,74.32c-1.2.28-2.4.6-3.62.86s-2.67.43-4,.77a6.48,6.48,0,0,1-5.68-1A189.26,189.26,0,0,0,498,62.24c-4.25-2.19-8.71-4-13.14-5.78-4.21-1.72-8.48-3.28-12.76-4.84a67.85,67.85,0,0,0-6.84-2.16c-7.19-1.77-14.37-3.63-21.63-5.08-5.37-1.07-10.85-1.6-16.29-2.27-1.17-.15-1.92-.31-2.13-1.69a4.22,4.22,0,0,0-1.37-1.87c-4.85-4.84-2.76-4-9.71-4.1-5.91-.09-11.83,0-17.75-.07a7.06,7.06,0,0,0-4.67,1.48c-1.19.94-2.46,1.78-3.69,2.65a3.67,3.67,0,0,0-1.9,3.34C337.68,47.57,296,67.24,261,101.61c-1.15-1.11-2.2-2.17-3.3-3.17s-2.15-1.85-3.4-2.91a205.8,205.8,0,0,1,29.51-24.85,214.88,214.88,0,0,1,249.41,2.94Z"/><path class="cls-5" d="M438.56,446c0-.08-.05-.2,0-.23,3.4-2.52,3.29-6.25,3.38-9.89.23-9.51.35-19,.65-28.52a7.65,7.65,0,0,0-1.93-5.45c-1-1.2-2-2.47-2.84-3.57.07-.33.06-.43.11-.48a.26.26,0,0,1,.2-.1,6.74,6.74,0,0,1,1.19,0l81.32,15.39a13.6,13.6,0,0,1-1.53,1.43,204.24,204.24,0,0,1-24.74,14.12,191.26,191.26,0,0,1-35.69,13.14c-6.49,1.65-13.1,2.84-19.65,4.23A1.29,1.29,0,0,1,438.56,446Z"/><path class="cls-10" d="M608.85,63.89h28.82a10.84,10.84,0,0,1,.22,1.53q-.12,32.6-.27,65.19a5.57,5.57,0,0,1-5.27,5.57c-7.4.62-14.79,1.29-22.19,1.93a11.78,11.78,0,0,1-1.19,0C608.49,136.46,608.36,66.82,608.85,63.89Z"/><path class="cls-6" d="M637.78,426h-29v-74.3l17.52,1.52c2.23.19,4.46.41,6.68.63a5.9,5.9,0,0,1,4.65,4.69,12,12,0,0,1,0,1.2l.27,64.05C637.9,424.53,637.83,425.23,637.78,426Z"/><path class="cls-5" d="M439.24,47.57a189.78,189.78,0,0,1,77.37,30L439,92.31l-.31-.37c.48-.65.94-1.34,1.47-2a6.69,6.69,0,0,0,1.72-5.46c-.34-3.25-.15-6.54-.22-9.82q-.24-9.93-.51-19.87C441,52.34,441.51,49.69,439.24,47.57Z"/><path class="cls-9" d="M596.76,346.69l-6.86-5.51c1.77-3.76,3.44-7.19,5-10.68a156.19,156.19,0,0,0,7.55-19.61c1.37-4.66,3.08-9.25,4.14-14,1.67-7.44,3.13-15,4.29-22.5a71.59,71.59,0,0,0,1.24-13.26,57.39,57.39,0,0,1,.69-7.11c.06-.71,0-1.43,0-2.15V241.67c0-.63,0-1.27,0-1.91-.15-2.68-.27-5.37-.49-8-.23-2.83-.48-5.67-.86-8.49-.61-4.57-1.16-9.17-2.06-13.7-1.1-5.54-2.42-11.05-3.87-16.52A202.54,202.54,0,0,0,595,163.52c-1.65-3.8-3.63-7.45-5.46-11.17-1-2-1.05-2.17.6-3.71,1.49-1.4,3.11-2.67,4.94-4.22,1.16,2,2.28,3.68,3.08,5.45,2.87,6.4,5.75,12.79,8.41,19.27a131.51,131.51,0,0,1,5.92,17.61c1.72,6.79,3.53,13.57,4.93,20.43,1.06,5.21,1.57,10.53,2.27,15.82.44,3.37.8,6.75,1.15,10.14.14,1.4.17,2.81.22,4.22.16,4.14.44,8.29.4,12.43,0,4.38-.62,8.76-.55,13.13a60.24,60.24,0,0,1-.74,9.22c-.47,3.55-.83,7.13-1.53,10.64-1.27,6.4-2.53,12.82-4.19,19.13a201.46,201.46,0,0,1-6.89,21.33c-2.75,7.07-5.82,14-9.12,20.81A27.18,27.18,0,0,1,596.76,346.69Z"/><path class="cls-6" d="M637.91,61.23H608.74V7.15A16.83,16.83,0,0,1,610.51,7c7,0,13.9.12,20.85.12a3.6,3.6,0,0,1,2.56,1c4.15,3.75,4.15,3.73,4.13,9.37q-.07,20.49-.14,41Z"/><path class="cls-10" d="M608.82,428.77h29.09v2.44c.06,14.86.09,29.71.19,44.57a5.08,5.08,0,0,1-1.33,3.38c-2.32,2.95-5.14,4-8.91,3.79-5.49-.27-11,.06-16.53.13H609C608.5,481.14,608.35,432.36,608.82,428.77Z"/><path class="cls-10" d="M205.93,29.45l23.88,21.88L198.24,86.92,175,64.89C185.31,53.05,195.54,41.35,205.93,29.45Z"/><path class="cls-10" d="M198.21,404.6l32.65,34.62-24,21.2-32.55-34Z"/><path class="cls-10" d="M395.36,37h23.06c.25,18.68.49,37.41.73,56.33l-23,.63C395.86,75,395.61,56.15,395.36,37Z"/><path class="cls-10" d="M418.25,453H395.37c.23-18.32.47-36.46.71-54.75h22.58C419.23,400.07,418.84,448.94,418.25,453Z"/><path class="cls-10" d="M420,347.79c-.24,16.08-.47,31.8-.7,47.71-7.72.61-15.26-.39-22.77-.17-.52-2.26.19-45.1.82-48Z"/><path class="cls-11" d="M236.24,79.13,234.61,77a235.86,235.86,0,0,1,68.73-49.17Q378.16-7.39,459.11,10.07c48.65,10.43,88.17,36,110.34,57.08-1.92,1.24-2.29,1.22-3.84-.17a219.19,219.19,0,0,0-20.67-16.29A239.38,239.38,0,0,0,513,31.79a251,251,0,0,0-24-10.17,219.44,219.44,0,0,0-28.93-8.41q-9-2-18.09-3.26c-5.83-.85-11.7-1.56-17.57-1.88-7.65-.42-15.32-.43-23-.55a171.32,171.32,0,0,0-20.74,1.39,233.67,233.67,0,0,0-43,8.88A242.21,242.21,0,0,0,305.1,30.42a235.45,235.45,0,0,0-35.75,20.86A195.69,195.69,0,0,0,248.42,68q-5.52,5.14-11.08,10.25A12.85,12.85,0,0,1,236.24,79.13Z"/><path class="cls-10" d="M420,142.34H397.26c-.59-2.48-1.42-39.77-1-45.49l22.88-.41C419.73,111.76,419.54,126.82,420,142.34Z"/><path class="cls-12" d="M480.63,243.4c0,35.8-23.94,66.46-58.77,74.26-25,5.62-47.79-.22-67.05-17.06a72.34,72.34,0,0,1-24.1-43.89c-3.61-22.37,1.58-42.63,15.77-60.26,13-16.1,30-25.27,50.56-27.78,30.72-3.74,61.63,12.69,75.64,40.25A75,75,0,0,1,480.63,243.4ZM405,317.71c40.56,0,73.5-32.71,73.76-72.85C479,210.29,451,171,404.88,170.74a73.22,73.22,0,0,0-73.59,73.18C331.23,287.24,367.89,318.23,405,317.71Z"/><path class="cls-11" d="M224.33,88.21l2,1.9c-37.89,45.07-57.85,96.81-58.13,155.57s19.25,110.53,56.48,155.88a4.84,4.84,0,0,1-.54.78,4.52,4.52,0,0,1-.7.52c-.23-.1-.42-.12-.51-.23q-6-7.45-11.95-14.93c-1.69-2.12-3.56-4.1-5.12-6.32a92.28,92.28,0,0,1-5.66-8.86c-3.82-7-7.62-14-11.12-21.22a162.65,162.65,0,0,1-8.74-21c-1.32-4.09-3-8.06-4.21-12.19-1.89-6.58-3.58-13.22-5.15-19.88-1.09-4.65-2-9.36-2.7-14.08s-1.13-9.33-1.67-14c-1.25-10.64-1.11-21.33-.93-32a143.63,143.63,0,0,1,1.8-21.61c1.18-7,2.09-14,3.51-21,1.23-6,3-11.89,4.55-17.82a170.42,170.42,0,0,1,7.49-21.69c2.6-6.34,5.67-12.49,8.63-18.68,1.61-3.38,3.26-6.76,5.19-10,4-6.62,8-13.22,12.34-19.63,3.34-5,7.11-9.61,10.74-14.37C221.25,91.73,222.69,90.15,224.33,88.21Z"/><path class="cls-8" d="M265.46,342.21l32,33.32-14.1,11.88-31.82-32.8Z"/><path class="cls-8" d="M282.76,102.25,296.27,115l-30.43,34.77-13-13Z"/><path class="cls-11" d="M572.4,423.06c-2.62,2.39-4.87,4.63-7.32,6.62-5.77,4.66-11.45,9.44-17.49,13.72A209.16,209.16,0,0,1,520.48,460c-6.43,3.21-12.81,6.56-19.42,9.33-6.83,2.86-13.88,5.23-20.91,7.58a199.94,199.94,0,0,1-34.36,8.17q-9.8,1.44-19.63,2.43c-3.54.36-7.12.32-10.68.45s-7.18.46-10.76.36c-6.19-.16-12.39-.38-18.56-.95A237.15,237.15,0,0,1,349,481.14a241.67,241.67,0,0,1-40.47-13.88,256.31,256.31,0,0,1-28.08-14.91,195.22,195.22,0,0,1-22.63-16c-4.79-4-9.48-8-14.12-12.17-3.1-2.76-6-5.69-9-8.6-1.13-1.11-1.07-1.17.17-2.46a11.94,11.94,0,0,1,1.07.84c3.46,3.31,6.79,6.78,10.41,9.91,5.91,5.11,11.87,10.19,18.07,14.94a220.22,220.22,0,0,0,26.95,17.38,246.59,246.59,0,0,0,29.94,13.95,225.22,225.22,0,0,0,32,9.83,185.72,185.72,0,0,0,23.51,4.16c5.31.51,10.62,1.21,15.94,1.4,8.78.33,17.57.6,26.34.35a188.65,188.65,0,0,0,22.34-2.14,252.81,252.81,0,0,0,26.46-5.31A237.8,237.8,0,0,0,501,467.15a227.58,227.58,0,0,0,43.11-23.82c6.49-4.62,12.65-9.7,18.92-14.63,2.13-1.68,4.12-3.53,6.19-5.29C570.16,422.56,570.17,422.57,572.4,423.06Z"/><path class="cls-13" d="M286.3,361c-.5-.43-.81-.67-1.09-1l-5-5.2,65.3-60.36,5.89,6.13Z"/><path class="cls-13" d="M350.86,188l-5.76,6.25-64.28-58.65,5.71-6.49Z"/><path class="cls-13" d="M213.73,74.37l5.94-6.68L270.07,114l-5.74,6.54Z"/><path class="cls-13" d="M219.76,422.71l-6.11-6.52,49.73-45.84,6.47,5.88Z"/><path class="cls-11" d="M622,139.71c2.32-.34,2.56-.26,3.26,1.37,2.2,5.12,4.44,10.24,6.56,15.4a149.61,149.61,0,0,1,6.32,18.21c1.48,5.54,3.26,11,4.56,16.58,1.66,7.13,3,14.31,4,21.59.83,6.23,1.57,12.45,1.8,18.72.25,6.92.39,13.85.48,20.77,0,2.86-.29,5.73-.32,8.6,0,2,.25,4.06.24,6.09a30.91,30.91,0,0,1-.44,4.27c-.89,5.66-1.66,11.34-2.75,17-1.33,6.88-2.7,13.76-4.47,20.54a201.37,201.37,0,0,1-10,29.41c-1.62,3.72-3.29,7.43-4.88,11.17-.57,1.32-1.42,1.54-2.71,1C655.52,279.85,654.72,209.65,622,139.71Z"/><path class="cls-14" d="M425.38,447c.35-16.29.69-32.36,1.05-48.78,2.53,0,4.9-.06,7.27,0a2.53,2.53,0,0,1,1.51,1c1.51,1.86,3,3.74,4.36,5.71a4.45,4.45,0,0,1,.63,2.44c-.23,8.62-.52,17.23-.79,25.85-.07,2.24-.15,4.47-.15,6.71a2.66,2.66,0,0,1-1.09,2.48,3.77,3.77,0,0,0-1,1C434.25,447.78,429.81,446.92,425.38,447Zm12.39-11.47a5.21,5.21,0,0,0-5.21-5.11,5.3,5.3,0,0,0-5.18,5.19,5.24,5.24,0,0,0,5.37,5.21A5.14,5.14,0,0,0,437.77,435.48ZM438,408.4a5,5,0,0,0-5.18-5.08,5.06,5.06,0,0,0-5.09,5.21,5,5,0,0,0,5.22,5.05A4.91,4.91,0,0,0,438,408.4Zm-5.4,8.36a5.17,5.17,0,0,0-5.16,5.19,5.11,5.11,0,0,0,5.25,5.07,5,5,0,0,0,5.12-5.16A5.1,5.1,0,0,0,432.55,416.76Z"/><path class="cls-12" d="M385.3,45.77V94.08c-2.47.07-4.77.2-7.07.15a2.42,2.42,0,0,1-1.49-1c-1.51-1.87-3-3.75-4.35-5.73a4.3,4.3,0,0,1-.71-2.41c.28-11,.64-22.06.95-33.09a2.77,2.77,0,0,1,1.05-2.29,14.19,14.19,0,0,0,1.71-1.67,4,4,0,0,1,2.67-1.41C380.44,46.4,382.8,46.08,385.3,45.77Zm-1.1,23.79a5,5,0,0,0-5.09-5.2,5.18,5.18,0,1,0,5.09,5.2Zm-5-8.57A5.14,5.14,0,0,0,379,50.72,5.14,5.14,0,1,0,379.18,61Zm0,27.35A5.14,5.14,0,0,0,379,78.07a5.14,5.14,0,1,0,.14,10.27Z"/><path class="cls-14" d="M426.44,93.11c-.33-16-.66-31.66-1-47.66,2.91.37,5.61.55,8.23,1.13,1,.21,1.66,1.42,2.57,2,2,1.37,2.36,3.27,2.41,5.58.19,9.9.53,19.8.91,29.7a5.7,5.7,0,0,1-1.38,4.38c-1.27,1.43-2.1,3.56-3.65,4.34s-3.9.39-5.88.48C428,93.14,427.39,93.11,426.44,93.11Zm11.33-23.5a5.14,5.14,0,0,0-5-5.27,5.19,5.19,0,1,0-.16,10.38A5.16,5.16,0,0,0,437.77,69.61Zm-10.09,12A5.16,5.16,0,0,0,433,86.72a5.19,5.19,0,1,0-5.27-5.07Zm10.09-25.89a5.08,5.08,0,0,0-5.27-5A5.13,5.13,0,0,0,427.39,56,5.24,5.24,0,0,0,432.7,61,5.17,5.17,0,0,0,437.77,55.76Z"/><path class="cls-12" d="M385.41,447.18c-1.89-.16-4-.28-6.12-.55a3.36,3.36,0,0,1-1.59-1c-1.39-1.32-3.2-2.47-4-4.1s-.29-3.6-.36-5.43c-.31-9.51-.6-19-1-28.52a5.1,5.1,0,0,1,1.17-3.73c1.34-1.59,2.49-3.33,3.82-4.93a2.76,2.76,0,0,1,1.73-1c2,0,4,.13,6.27.24ZM379,427a4.89,4.89,0,0,0,5.18-5,5,5,0,0,0-5.05-5.2,5.05,5.05,0,0,0-5.21,5.07A5,5,0,0,0,379,427Zm5.18-18.89A5.14,5.14,0,0,0,379,403a5.2,5.2,0,0,0-5.05,5.31,5.13,5.13,0,0,0,5.24,5.08A5.07,5.07,0,0,0,384.2,408.12Zm-10.26,27.43a5.14,5.14,0,0,0,5.11,5.22,5.07,5.07,0,0,0,5.15-5.16,5.13,5.13,0,1,0-10.26-.06Z"/><path class="cls-14" d="M601.84,428.75H606v53.32a52,52,0,0,1-3.75-3.88,3.59,3.59,0,0,1-.31-2.06q-.08-21.47-.11-42.93C601.83,431.77,601.84,430.34,601.84,428.75Z"/><path class="cls-14" d="M606,8.48V61.21h-4c-.06-.63-.16-1.24-.16-1.85,0-14.87.09-29.75,0-44.62a5.53,5.53,0,0,1,2-4.79A9.28,9.28,0,0,0,605.32,8Z"/><path class="cls-13" d="M178.52,29.73l12.59,11.64-6,6.88c-4.36-4-8.58-7.83-13-11.83Z"/><path class="cls-13" d="M185,442.42l6.35,6.65-12.69,11.79L172.49,454Z"/><path class="cls-12" d="M390.05,40.27V93.88h-2.52c0-.66-.11-1.27-.11-1.89,0-15.9.05-31.8,0-47.69C387.43,42.41,387.87,41,390.05,40.27Z"/><path class="cls-12" d="M394.65,395.25h-2.18c-.11-.22-.29-.42-.3-.63-.09-1.43-.19-2.86-.19-4.3q-.11-17.47-.16-35c0-2.61.21-5.23.33-8h2.69c.08,1.18.21,2.27.21,3.36q-.18,19.88-.4,39.76C394.63,392,394.65,393.49,394.65,395.25Z"/><path class="cls-12" d="M424.21,93.17l-2.77.16c-.34-18.36-.67-36.6-1-54.92,2.73,1.1,2.8,1.31,2.83,4,.11,9.58.27,19.17.41,28.75.08,5.51.15,11,.25,16.53C424,89.41,424.1,91.15,424.21,93.17Z"/><path class="cls-12" d="M425.22,348c-.32,15.91-.64,31.62-1,47.5l-2.78.19c-.12-15.94.53-31.72.6-47.69Z"/><path class="cls-12" d="M392.13,96.9h2.49c0,15.22.68,30.34.34,45.68l-2.72.34c-.15-2.32-.41-4.44-.4-6.56,0-12.77.09-25.54.15-38.31A10,10,0,0,1,392.13,96.9Z"/><path class="cls-12" d="M421.4,398.36c.66-.06,1-.11,1.43-.11s.77.06,1.19.1c-.29,17.14-.59,34.18-.88,51.58l-2.71,2.18C420.76,433.93,421.08,416.28,421.4,398.36Z"/><path class="cls-12" d="M421.39,96.65h2.91c.31,15.11.61,30.09.93,45.38l-3.1.22C421.88,127,421.63,111.93,421.39,96.65Z"/><path class="cls-12" d="M390,141c-1.58-.88-2.66-1.59-2.65-3.48.07-13,0-26,0-39,0-.46.07-.93.12-1.5H390Z"/><path class="cls-12" d="M394.61,93.91h-2.25a2.34,2.34,0,0,1-.28-.63,11.84,11.84,0,0,1-.05-1.19q-.09-24.2-.18-48.38c0-1.44.2-2.87.25-4.3,0-1.13.59-1.73,1.83-2C394.16,56.23,394.38,74.93,394.61,93.91Z"/><path class="cls-12" d="M392,398.19h2.54c-.21,18.2-.43,36.3-.65,54.54a2.13,2.13,0,0,1-1.83-2.22c-.06-2.48-.26-4.95-.25-7.42q.06-21.22.18-42.45C392,399.86,392,399.08,392,398.19Z"/><path class="cls-12" d="M389.72,395.23h-2.05c-.06-.67-.16-1.28-.16-1.89,0-13.66,0-27.33-.11-41a4.09,4.09,0,0,1,2.32-3.91Z"/><path class="cls-12" d="M389.39,447.63c-.85-.61-1.33-.79-1.47-1.11a3.7,3.7,0,0,1-.09-1.42l-.3-45.26c0-.47,0-.94,0-1.56l2.27-.22C389.66,414.48,389.53,430.73,389.39,447.63Z"/><path class="cls-15" d="M225.82,247.45q0-32.25,0-64.51c0-3.36.12-6.71.27-10.06a8.1,8.1,0,0,1,2.33-5.6c3.36-3.43,7.74-2.6,10.19,1.49a7.77,7.77,0,0,1,1,4.12q.13,68.7.31,137.4c0,2.95,0,5.91,0,8.87a7.77,7.77,0,0,1-2.47,5.78,5.86,5.86,0,0,1-8.22.23c-2.33-1.9-3-4.43-3-7.23-.06-8.07-.05-16.15-.12-24.22q-.19-23.13-.45-46.27Zm11.84-1.13h0q0-32.49,0-65c0-3-.09-5.92-.27-8.86a7.48,7.48,0,0,0-.81-3c-1.49-2.8-4.62-3.13-6.75-.78A7.43,7.43,0,0,0,228,174q.12,71.1.17,142.18c0,.88,0,1.76,0,2.64a6.9,6.9,0,0,0,2.17,4.67,3.86,3.86,0,0,0,6.18-.7,6.89,6.89,0,0,0,1.07-4.09Q237.65,282.52,237.66,246.32Z"/><path class="cls-16" d="M405,317.71c-37.1.52-73.76-30.47-73.7-73.79a73.22,73.22,0,0,1,73.59-73.18C451,171,479,210.29,478.75,244.86,478.49,285,445.55,317.74,405,317.71Zm-1.52-2.77c18.82-.11,34.76-6.18,48.28-18.35,21-18.92,28.7-48.87,19.77-76.16-11-33.76-48-54.09-83-45.69a71.09,71.09,0,0,0-53.46,84.2,69.34,69.34,0,0,0,21.68,37.9C370.08,308.92,386.13,314.62,403.47,314.94Z"/><path class="cls-16" d="M437.77,435.48a5.14,5.14,0,0,1-5,5.29,5.24,5.24,0,0,1-5.37-5.21,5.3,5.3,0,0,1,5.18-5.19A5.21,5.21,0,0,1,437.77,435.48Zm-5.17-3.26a3.46,3.46,0,0,0-3.42,3.29,3.42,3.42,0,0,0,3.27,3.41,3.35,3.35,0,1,0,.15-6.7Z"/><path class="cls-16" d="M438,408.4a4.91,4.91,0,0,1-5.05,5.18,5,5,0,0,1-5.22-5.05,5.06,5.06,0,0,1,5.09-5.21A5,5,0,0,1,438,408.4Zm-1.72.05a3.56,3.56,0,0,0-3.34-3.39,3.35,3.35,0,0,0-3.36,3.52,3,3,0,0,0,3.37,3.12A3.23,3.23,0,0,0,436.23,408.45Z"/><path class="cls-15" d="M432.55,416.76a5.1,5.1,0,0,1,5.21,5.1,5,5,0,0,1-5.12,5.16,5.11,5.11,0,0,1-5.25-5.07A5.17,5.17,0,0,1,432.55,416.76Zm3.36,5.19a3.35,3.35,0,0,0-3.21-3.46,3.58,3.58,0,0,0-3.53,3.46,3.23,3.23,0,0,0,3.41,3.19A3,3,0,0,0,435.91,422Z"/><path class="cls-16" d="M384.2,69.56a5.07,5.07,0,0,1-5.14,5.15,5.18,5.18,0,0,1,.05-10.35A5,5,0,0,1,384.2,69.56Zm-5.12-3.4a3.24,3.24,0,0,0-3.29,3.31,3.16,3.16,0,0,0,3.2,3.38,3.35,3.35,0,1,0,.09-6.69Z"/><path class="cls-15" d="M379.18,61A5.14,5.14,0,1,1,379,50.72,5.14,5.14,0,0,1,379.18,61Zm-3.4-5.18a3.45,3.45,0,0,0,3.2,3.48,3.57,3.57,0,0,0,3.51-3.49,3.3,3.3,0,0,0-3.42-3.21A3,3,0,0,0,375.78,55.81Z"/><path class="cls-15" d="M379.16,88.34A5.14,5.14,0,1,1,379,78.07a5.14,5.14,0,0,1,.14,10.27Zm3.33-5.2a3.3,3.3,0,0,0-3.43-3.2,3,3,0,0,0-3.28,3.24A3.45,3.45,0,0,0,379,86.65,3.57,3.57,0,0,0,382.49,83.14Z"/><path class="cls-16" d="M437.77,69.61a5.16,5.16,0,0,1-5.19,5.11,5.19,5.19,0,1,1,.16-10.38A5.14,5.14,0,0,1,437.77,69.61Zm-1.85-.1a3.33,3.33,0,0,0-3.3-3.35,3.35,3.35,0,1,0,0,6.69A3.21,3.21,0,0,0,435.92,69.51Z"/><path class="cls-16" d="M427.68,81.65a5.12,5.12,0,0,1,5-5.31A5.19,5.19,0,0,1,433,86.72,5.16,5.16,0,0,1,427.68,81.65Zm5.22-3.49a3.26,3.26,0,0,0-3.37,3.24,3.19,3.19,0,0,0,3.14,3.45,3.35,3.35,0,1,0,.23-6.69Z"/><path class="cls-16" d="M437.77,55.76A5.17,5.17,0,0,1,432.7,61,5.24,5.24,0,0,1,427.39,56a5.13,5.13,0,0,1,5.11-5.24A5.08,5.08,0,0,1,437.77,55.76Zm-1.86.15a3.09,3.09,0,0,0-3.23-3.32A3.28,3.28,0,0,0,429.19,56a3.54,3.54,0,0,0,3.42,3.33A3.42,3.42,0,0,0,435.91,55.91Z"/><path class="cls-16" d="M379,427a5,5,0,0,1-5.08-5.17,5.05,5.05,0,0,1,5.21-5.07,5,5,0,0,1,5.05,5.2A4.89,4.89,0,0,1,379,427Zm0-8.51a3.36,3.36,0,0,0-3.19,3.68c.1,1.92,1.45,3.05,3.52,2.95a3.23,3.23,0,0,0,3.17-3.41A3.57,3.57,0,0,0,379,418.5Z"/><path class="cls-16" d="M384.2,408.12a5.07,5.07,0,0,1-5,5.29,5.13,5.13,0,0,1-5.24-5.08A5.2,5.2,0,0,1,379,403,5.14,5.14,0,0,1,384.2,408.12Zm-1.73.12a3.39,3.39,0,0,0-3.31-3.38,3.25,3.25,0,0,0-3.37,3.48,3.19,3.19,0,0,0,3.34,3.23A3.34,3.34,0,0,0,382.47,408.24Z"/><path class="cls-16" d="M373.94,435.55a5.13,5.13,0,1,1,10.26.06,5.07,5.07,0,0,1-5.15,5.16A5.14,5.14,0,0,1,373.94,435.55Zm8.53.11a3.38,3.38,0,0,0-3.24-3.44,3.36,3.36,0,0,0-.41,6.71A3.39,3.39,0,0,0,382.47,435.66Z"/><path class="cls-8" d="M237.66,246.32q0,36.21,0,72.41a6.89,6.89,0,0,1-1.07,4.09,3.86,3.86,0,0,1-6.18.7,6.9,6.9,0,0,1-2.17-4.67c-.07-.88,0-1.76,0-2.64Q228.14,245.13,228,174a7.43,7.43,0,0,1,1.81-5.29c2.13-2.35,5.26-2,6.75.78a7.48,7.48,0,0,1,.81,3c.18,2.94.27,5.9.27,8.86q0,32.49,0,65Z"/><path class="cls-17" d="M403.47,314.94c-17.34-.32-33.39-6-46.69-18.1a69.34,69.34,0,0,1-21.68-37.9,71.09,71.09,0,0,1,53.46-84.2c35-8.4,71.91,11.93,83,45.69,8.93,27.29,1.21,57.24-19.77,76.16C438.23,308.76,422.29,314.83,403.47,314.94Zm1.56-5.08h5.28c.48,0,1,0,1.43-.09,17.49-2.12,32.31-9.44,43.61-23.08,13.17-15.91,18.26-34.24,13.87-54.48-7.49-34.5-39.89-57.8-75.84-51.51A64.6,64.6,0,0,0,340,241.16c-1.06,22,7,40.26,24.32,54.23A62.6,62.6,0,0,0,405,309.86Z"/><path class="cls-5" d="M432.6,432.22a3.35,3.35,0,1,1-.15,6.7,3.42,3.42,0,0,1-3.27-3.41A3.46,3.46,0,0,1,432.6,432.22Z"/><path class="cls-5" d="M436.23,408.45a3.23,3.23,0,0,1-3.33,3.25,3,3,0,0,1-3.37-3.12,3.35,3.35,0,0,1,3.36-3.52A3.56,3.56,0,0,1,436.23,408.45Z"/><path class="cls-5" d="M435.91,422a3,3,0,0,1-3.33,3.19,3.23,3.23,0,0,1-3.41-3.19,3.58,3.58,0,0,1,3.53-3.46A3.35,3.35,0,0,1,435.91,422Z"/><path class="cls-5" d="M379.08,66.16a3.35,3.35,0,1,1-.09,6.69,3.16,3.16,0,0,1-3.2-3.38A3.24,3.24,0,0,1,379.08,66.16Z"/><path class="cls-5" d="M375.78,55.81a3,3,0,0,1,3.29-3.22,3.3,3.3,0,0,1,3.42,3.21A3.57,3.57,0,0,1,379,59.29,3.45,3.45,0,0,1,375.78,55.81Z"/><path class="cls-5" d="M382.49,83.14A3.57,3.57,0,0,1,379,86.65a3.45,3.45,0,0,1-3.22-3.47,3,3,0,0,1,3.28-3.24A3.3,3.3,0,0,1,382.49,83.14Z"/><path class="cls-5" d="M435.92,69.51a3.21,3.21,0,0,1-3.26,3.34,3.35,3.35,0,1,1,0-6.69A3.33,3.33,0,0,1,435.92,69.51Z"/><path class="cls-5" d="M432.9,78.16a3.35,3.35,0,1,1-.23,6.69,3.19,3.19,0,0,1-3.14-3.45A3.26,3.26,0,0,1,432.9,78.16Z"/><path class="cls-5" d="M435.91,55.91a3.42,3.42,0,0,1-3.3,3.37A3.54,3.54,0,0,1,429.19,56a3.28,3.28,0,0,1,3.49-3.36A3.09,3.09,0,0,1,435.91,55.91Z"/><path class="cls-5" d="M379,418.5a3.57,3.57,0,0,1,3.5,3.22,3.23,3.23,0,0,1-3.17,3.41c-2.07.1-3.42-1-3.52-2.95A3.36,3.36,0,0,1,379,418.5Z"/><path class="cls-5" d="M382.47,408.24a3.34,3.34,0,0,1-3.34,3.33,3.19,3.19,0,0,1-3.34-3.23,3.25,3.25,0,0,1,3.37-3.48A3.39,3.39,0,0,1,382.47,408.24Z"/><path class="cls-5" d="M382.47,435.66a3.39,3.39,0,0,1-3.65,3.27,3.36,3.36,0,0,1,.41-6.71A3.38,3.38,0,0,1,382.47,435.66Z"/><path class="cls-15" d="M405,309.86a62.6,62.6,0,0,1-40.68-14.47C347,281.42,339,263.13,340,241.16a64.6,64.6,0,0,1,53.35-60.46c35.95-6.29,68.35,17,75.84,51.51,4.39,20.24-.7,38.57-13.87,54.48-11.3,13.64-26.12,21-43.61,23.08-.47.05-.95.08-1.43.09Zm24.7-64.13a22.82,22.82,0,0,0-22.5-23.68c-12-.2-24.21,9.41-24.22,23.33A23.17,23.17,0,0,0,406.53,269C419.81,269,429.66,259.09,429.73,245.73ZM399.2,182.31c-8.95-1-28.67,7.35-34.41,14.28l29,26.59,5.4-2.37Zm-35,110.55c8.34,8.09,26.6,14.8,34.26,13.9.05-.75.13-1.53.14-2.31q.15-13.17.29-26.35c0-2.07,0-4.15,0-6.23,0-.84-.07-1.55-1-2C396,269,394.06,268,392,267Zm56.76-25.46c-2.09,1-3.94,2-5.83,2.79s-1.85.75-1.86,2.77c0,5.34,0,10.68-.09,16-.06,5.11-.21,10.22-.3,15.33,0,.84.07,1.69.12,2.73a62,62,0,0,0,33.93-16Zm-6.72-85.12c-.16,13.09-.32,25.89-.48,38.59l4.79,2c9.25-8.53,18.54-17,27.83-25.78A63.27,63.27,0,0,0,414.2,182.28Zm-71.95,55.15H345l33.78.06c4.06,0,3.31.11,4.79-3.27a3.05,3.05,0,0,0,.08-.82L354.5,206.84A62.68,62.68,0,0,0,342.25,237.43Zm38.93,14.41c-12.81,0-25.77-.23-38.94,0a62.07,62.07,0,0,0,11.95,30.26,14.25,14.25,0,0,0,1.26-1q12.49-11.51,25-23C383.14,255.61,383.13,255.59,381.18,251.84ZM429,232.75a24.08,24.08,0,0,1,1.48,3.16c.4,1.32,1.19,1.66,2.49,1.67,10.62,0,21.25.14,31.87.22.69,0,1.37-.12,2.28-.2-1.25-10.94-4.56-20.83-11.11-30Zm37.51,19.66H431.69a20.52,20.52,0,0,1-.85,2.13,2.36,2.36,0,0,0,.74,3.33c1.37,1.1,2.64,2.33,3.93,3.52q9.36,8.58,18.72,17.17a22.11,22.11,0,0,0,2,1.44C461.75,273.74,467.16,257.33,466.46,252.41Zm-85.39-11.73c-13-.27-25.95-.16-39.06-.23v8c2.77.55,37,.63,38.7.17C380.83,246,380.94,243.48,381.07,240.68Zm21.45-58.87V220h8c.52-3.63.57-36.37,0-38.19ZM356.3,204.38l28.62,26,6.37-5.49-29.16-26.68C360.12,200.35,358.32,202.25,356.3,204.38Zm27.82,54.37-28.09,26,5.78,6.17,27.76-25.82Zm64.53-59.61c-9.3,8.6-18.41,16.9-27.36,25.31l6,5.66,26.67-24.73C452.13,203.25,450.5,201.31,448.65,199.14ZM432.4,249c11.72.13,23.17.27,34.69.2a32.53,32.53,0,0,0,.19-8.39H432.4ZM410,271.47h-8.06v35.86H410Zm44.6,11.4L428.74,259.2l-5.36,6.3,25.83,23.55Z"/><path class="cls-6" d="M429.73,245.73c-.07,13.36-9.92,23.22-23.2,23.22A23.17,23.17,0,0,1,383,245.38c0-13.92,12.23-23.53,24.22-23.33A22.82,22.82,0,0,1,429.73,245.73Z"/><path class="cls-18" d="M399.2,182.31v38.5l-5.4,2.37-29-26.59C370.53,189.66,390.25,181.33,399.2,182.31Z"/><path class="cls-18" d="M364.16,292.86,392,267c2,1,3.94,2,5.89,2.86.91.42,1,1.13,1,2,0,2.08,0,4.16,0,6.23q-.15,13.17-.29,26.35c0,.78-.09,1.56-.14,2.31C390.76,307.66,372.5,301,364.16,292.86Z"/><path class="cls-18" d="M420.92,267.4l26,23.66A62,62,0,0,1,413,307c0-1-.14-1.89-.12-2.73.09-5.11.24-10.22.3-15.33.07-5.34.05-10.68.09-16,0-2,.06-2,1.86-2.77S418.83,268.41,420.92,267.4Z"/><path class="cls-18" d="M414.2,182.28a63.27,63.27,0,0,1,32.14,14.86c-9.29,8.8-18.58,17.25-27.83,25.78l-4.79-2C413.88,208.17,414,195.37,414.2,182.28Z"/><path class="cls-18" d="M342.25,237.43a62.68,62.68,0,0,1,12.25-30.59l29.11,26.56a3.05,3.05,0,0,1-.08.82c-1.48,3.38-.73,3.28-4.79,3.27L345,237.43Z"/><path class="cls-18" d="M381.18,251.84c1.95,3.75,2,3.77-.75,6.28q-12.48,11.53-25,23a14.25,14.25,0,0,1-1.26,1,62.07,62.07,0,0,1-11.95-30.26C355.41,251.61,368.37,251.81,381.18,251.84Z"/><path class="cls-18" d="M429,232.75l27-25.11c6.55,9.13,9.86,19,11.11,30-.91.08-1.59.2-2.28.2-10.62-.08-21.25-.18-31.87-.22-1.3,0-2.09-.35-2.49-1.67A24.08,24.08,0,0,0,429,232.75Z"/><path class="cls-18" d="M466.46,252.41c.7,4.92-4.71,21.33-10.25,27.59a22.11,22.11,0,0,1-2-1.44q-9.37-8.58-18.72-17.17c-1.29-1.19-2.56-2.42-3.93-3.52a2.36,2.36,0,0,1-.74-3.33,20.52,20.52,0,0,0,.85-2.13Z"/><path class="cls-17" d="M381.07,240.68c-.13,2.8-.24,5.34-.36,7.92-1.7.46-35.93.38-38.7-.17v-8C355.12,240.52,368.09,240.41,381.07,240.68Z"/><path class="cls-17" d="M402.52,181.81h8.05c.53,1.82.48,34.56,0,38.19h-8Z"/><path class="cls-13" d="M356.3,204.38c2-2.13,3.82-4,5.83-6.13l29.16,26.68-6.37,5.49Z"/><path class="cls-13" d="M384.12,258.75l5.45,6.34-27.76,25.82L356,284.74Z"/><path class="cls-13" d="M448.65,199.14c1.85,2.17,3.48,4.11,5.29,6.24l-26.67,24.73-6-5.66C430.24,216,439.35,207.74,448.65,199.14Z"/><path class="cls-17" d="M432.4,249v-8.19h34.88a32.53,32.53,0,0,1-.19,8.39C455.57,249.3,444.12,249.16,432.4,249Z"/><path class="cls-13" d="M410,271.47v35.86h-8.06V271.47Z"/><path class="cls-17" d="M454.57,282.87l-5.36,6.18L423.38,265.5l5.36-6.3Z"/></g></g></svg>